{
.appVersion = "3260";
.formatVersion = 3;
DisplayStrings = (
"Zero Handles
T

Angled Handles
ABCDEFGHIJKLMNOPQRSTUVWXYZabcdefghijklmnopqrstuvwxyz0123456789*,!.?$€@/alt1/alt2/alt3/alt4/alt1.001/alt1.002/alt2.001 

Almost Orthogonal Lines
Tg

"
);
customParameters = (
{
name = panose;
value = (
0,
0,
5,
0,
0,
0,
0,
0,
0,
0
);
},
{
name = unicodeRanges;
value = (
0
);
},
{
name = codePageRanges;
value = (
"1252"
);
},
{
name = blueScale;
value = 0.037;
},
{
name = glyphOrder;
value = (
.notdef,
A,
B,
C,
D,
E,
F,
G,
H,
I,
J,
K,
L,
M,
N,
O,
P,
Q,
R,
S,
T,
U,
V,
W,
X,
Y,
Z,
a,
b,
c,
d,
e,
f,
g,
h,
i,
j,
k,
l,
m,
n,
o,
p,
q,
r,
s,
t,
u,
v,
w,
x,
y,
z,
zero,
one,
two,
three,
four,
five,
six,
seven,
eight,
nine,
asterisk,
comma,
exclam,
period,
question,
space,
CR,
.null,
dollar,
Euro,
at,
alt1.003,
alt2.002,
alt3.001,
alt4.001,
alt1,
alt2,
alt3,
alt4,
alt1.001,
alt1.002,
alt2.001
);
}
);
date = "2017-03-01 08:48:48 +0000";
familyName = guppyquick;
fontMaster = (
{
customParameters = (
{
name = typoAscender;
value = 750;
},
{
name = typoDescender;
value = -250;
},
{
name = typoLineGap;
value = 200;
},
{
name = winAscent;
value = 950;
},
{
name = winDescent;
value = 250;
},
{
name = hheaAscender;
value = 950;
},
{
name = hheaDescender;
value = -250;
},
{
name = strikeoutPosition;
value = 300;
},
{
name = strikeoutSize;
value = 50;
},
{
name = underlinePosition;
value = -75;
}
);
id = m01;
metricValues = (
{
pos = 750;
},
{
pos = 700;
},
{
pos = 500;
},
{
},
{
pos = -250;
},
{
}
);
name = Regular;
}
);
glyphs = (
{
glyphname = A;
lastChange = "2024-06-01 13:54:28 +0000";
layers = (
{
layerId = m01;
shapes = (
{
closed = 1;
nodes = (
(478,-23,o),
(508,-6,o),
(521,30,cs),
(534,66,o),
(523,115,o),
(500,158,cs),
(477,201,o),
(449,244,o),
(421,285,cs),
(407,305,o),
(395,325,o),
(384,344,cs),
(367,373,o),
(347,406,o),
(347,437,cs),
(347,446,o),
(349,456,o),
(353,468,cs),
(357,479,o),
(359,490,o),
(358,499,c),
(357,502,o),
(355,506,o),
(352,511,c),
(345,519,o),
(337,527,o),
(326,532,cs),
(314,536,o),
(299,538,o),
(287,524,cs),
(281,517,o),
(274,510,o),
(266,505,cs),
(253,497,o),
(231,487,o),
(208,479,cs),
(185,470,o),
(163,463,o),
(148,462,cs),
(131,461,o),
(117,468,o),
(106,474,cs),
(94,480,o),
(84,484,o),
(75,480,cs),
(55,471,o),
(60,451,o),
(73,433,cs),
(85,415,o),
(105,399,o),
(116,402,c),
(109,384,o),
(103,364,o),
(100,343,cs),
(97,322,o),
(92,301,o),
(86,281,c),
(73,277,o),
(60,273,o),
(48,270,cs),
(35,267,o),
(21,262,o),
(6,256,cs),
(-5,251,o),
(-19,243,o),
(-30,234,cs),
(-42,225,o),
(-50,213,o),
(-45,200,c),
(-43,191,o),
(-36,187,o),
(-25,188,cs),
(-2,190,o),
(27,199,o),
(51,207,cs),
(63,211,o),
(71,212,o),
(75,209,c),
(75,196,o),
(74,182,o),
(71,169,cs),
(62,129,ls),
(56,101,o),
(50,73,o),
(54,45,cs),
(58,24,o),
(70,12,o),
(83,9,cs),
(96,5,o),
(112,12,o),
(121,29,cs),
(136,53,o),
(140,87,o),
(144,123,cs),
(147,159,o),
(150,195,o),
(159,223,c),
(234,227,o),
(305,229,o),
(369,213,c),
(374,205,o),
(382,196,o),
(391,185,cs),
(400,174,o),
(408,160,o),
(416,145,cs),
(431,121,o),
(450,85,o),
(446,58,cs),
(443,46,o),
(431,40,o),
(419,33,cs),
(407,26,o),
(394,20,o),
(387,8,c),
(405,-7,o),
(423,-16,o),
(442,-18,cs)
);
},
{
closed = 1;
nodes = (
(175,312,o),
(178,331,o),
(182,349,cs),
(186,366,o),
(189,384,o),
(192,402,c),
(204,407,o),
(217,411,o),
(231,414,cs),
(244,417,o),
(258,420,o),
(271,425,c),
(272,411,o),
(274,398,o),
(277,387,cs),
(284,364,o),
(293,344,o),
(304,324,cs),
(319,293,l),
(272,299,o),
(224,299,o),
(173,293,c)
);
}
);
width = 507;
}
);
note = A;
unicode = 65;
},
{
glyphname = B;
lastChange = "2024-06-01 13:54:28 +0000";
layers = (
{
layerId = m01;
shapes = (
{
closed = 1;
nodes = (
(279,-30,o),
(333,-10,o),
(364,21,cs),
(408,62,o),
(420,129,o),
(411,191,cs),
(402,253,o),
(369,310,o),
(324,337,c),
(329,343,o),
(335,353,o),
(342,366,cs),
(356,392,o),
(365,425,o),
(366,457,cs),
(367,489,o),
(354,508,o),
(327,516,cs),
(300,524,o),
(267,527,o),
(232,528,cs),
(197,528,o),
(167,528,o),
(139,536,cs),
(110,544,o),
(85,553,o),
(61,562,cs),
(49,567,o),
(37,571,o),
(26,574,c),
(24,574,o),
(23,573,o),
(22,570,cs),
(21,567,o),
(20,566,o),
(17,566,c),
(16,554,o),
(17,545,o),
(22,538,cs),
(30,524,o),
(43,516,o),
(58,509,cs),
(65,506,o),
(72,501,o),
(77,496,c),
(75,478,o),
(75,461,o),
(77,444,cs),
(81,411,o),
(90,377,o),
(99,342,cs),
(108,306,o),
(114,274,o),
(118,238,cs),
(119,219,o),
(122,199,o),
(125,178,cs),
(126,162,o),
(129,140,o),
(133,121,cs),
(137,102,o),
(145,88,o),
(158,85,cs),
(175,82,o),
(186,90,o),
(193,102,cs),
(200,113,o),
(202,128,o),
(202,139,cs),
(202,162,o),
(200,185,o),
(196,209,cs),
(192,233,o),
(189,253,o),
(187,268,c),
(207,287,o),
(247,303,o),
(286,291,cs),
(307,284,o),
(327,262,o),
(340,235,cs),
(352,207,o),
(359,173,o),
(355,145,cs),
(352,112,o),
(333,75,o),
(313,62,cs),
(272,31,o),
(227,28,o),
(189,41,cs),
(151,54,o),
(118,84,o),
(102,117,cs),
(99,123,o),
(96,129,o),
(94,136,cs),
(92,143,o),
(90,149,o),
(87,156,cs),
(82,168,o),
(76,180,o),
(65,188,c),
(53,176,o),
(46,162,o),
(44,147,cs),
(37,94,o),
(61,49,o),
(97,17,cs),
(133,-15,o),
(182,-33,o),
(226,-33,cs)
);
},
{
closed = 1;
nodes = (
(169,350,o),
(162,375,o),
(155,398,cs),
(147,421,o),
(141,445,o),
(136,472,c),
(159,471,o),
(186,469,o),
(216,468,cs),
(245,466,o),
(273,462,o),
(298,457,c),
(296,435,o),
(292,416,o),
(285,399,cs),
(264,348,l),
(225,348,o),
(203,337,o),
(176,325,c)
);
}
);
width = 424;
}
);
note = B;
unicode = 66;
},
{
glyphname = C;
lastChange = "2024-06-01 13:54:28 +0000";
layers = (
{
layerId = m01;
shapes = (
{
closed = 1;
nodes = (
(296,-12,o),
(322,5,o),
(339,29,cs),
(355,53,o),
(363,84,o),
(355,116,c),
(334,116,o),
(321,102,o),
(306,90,cs),
(299,83,o),
(291,77,o),
(283,72,cs),
(267,61,o),
(239,61,o),
(216,81,cs),
(192,100,o),
(174,131,o),
(163,167,cs),
(151,202,o),
(145,237,o),
(142,278,cs),
(141,299,o),
(139,319,o),
(138,338,cs),
(135,377,o),
(134,414,o),
(126,443,c),
(154,438,o),
(184,444,o),
(213,449,cs),
(242,454,o),
(274,460,o),
(306,456,c),
(305,437,o),
(303,419,o),
(300,403,cs),
(297,386,o),
(297,367,o),
(298,344,cs),
(298,328,o),
(299,307,o),
(304,290,cs),
(309,273,o),
(317,259,o),
(332,259,cs),
(345,260,o),
(355,274,o),
(362,294,cs),
(369,313,o),
(371,335,o),
(374,352,cs),
(383,420,ls),
(387,465,o),
(385,503,o),
(368,520,cs),
(351,537,o),
(324,542,o),
(290,539,cs),
(256,536,o),
(214,534,o),
(171,523,cs),
(149,517,o),
(130,516,o),
(114,519,cs),
(95,523,o),
(84,537,o),
(74,551,cs),
(64,565,o),
(54,578,o),
(42,581,c),
(30,582,o),
(22,575,o),
(17,567,cs),
(12,558,o),
(10,547,o),
(10,543,cs),
(9,533,o),
(11,524,o),
(16,516,cs),
(25,499,o),
(40,486,o),
(52,475,cs),
(58,469,o),
(62,463,o),
(65,458,cs),
(73,442,o),
(75,420,o),
(75,397,cs),
(75,361,ls),
(74,349,o),
(74,338,o),
(74,327,cs),
(71,268,o),
(76,206,o),
(91,151,cs),
(106,95,o),
(129,47,o),
(168,16,cs),
(192,-5,o),
(224,-24,o),
(271,-17,cs)
);
}
);
width = 409;
}
);
note = C;
unicode = 67;
},
{
glyphname = D;
lastChange = "2024-06-01 13:54:28 +0000";
layers = (
{
layerId = m01;
shapes = (
{
closed = 1;
nodes = (
(314,-22,o),
(375,-5,o),
(420,32,cs),
(459,67,o),
(470,122,o),
(469,183,cs),
(468,244,o),
(454,311,o),
(445,367,cs),
(443,378,o),
(441,391,o),
(440,406,cs),
(439,420,o),
(437,434,o),
(435,448,cs),
(431,476,o),
(427,502,o),
(420,514,c),
(415,519,o),
(408,524,o),
(398,529,cs),
(378,537,o),
(362,526,o),
(344,516,cs),
(335,511,o),
(325,506,o),
(315,503,cs),
(254,480,o),
(181,466,o),
(97,471,cs),
(78,472,o),
(66,477,o),
(55,481,cs),
(43,485,o),
(33,489,o),
(17,492,c),
(1,469,o),
(9,451,o),
(28,438,cs),
(47,425,o),
(75,416,o),
(99,415,c),
(108,360,o),
(118,304,o),
(129,247,cs),
(140,190,o),
(148,135,o),
(155,81,c),
(144,88,o),
(134,97,o),
(125,106,cs),
(107,125,o),
(89,144,o),
(73,164,c),
(46,191,l),
(31,122,o),
(53,69,o),
(94,33,cs),
(134,-3,o),
(193,-22,o),
(254,-22,cs)
);
},
{
closed = 1;
nodes = (
(244,117,o),
(234,177,o),
(225,238,cs),
(216,299,o),
(205,358,o),
(193,415,c),
(254,418,o),
(302,433,o),
(346,452,c),
(349,452,o),
(350,451,o),
(350,449,cs),
(349,434,o),
(351,416,o),
(354,397,cs),
(360,357,o),
(369,313,o),
(378,268,cs),
(383,245,o),
(386,224,o),
(387,203,cs),
(390,161,o),
(386,123,o),
(367,98,cs),
(344,71,o),
(302,66,o),
(257,58,c)
);
}
);
width = 548;
}
);
note = D;
unicode = 68;
},
{
glyphname = E;
lastChange = "2024-06-01 13:54:28 +0000";
layers = (
{
layerId = m01;
shapes = (
{
closed = 1;
nodes = (
(380,38,o),
(425,86,o),
(430,161,cs),
(433,216,o),
(413,255,o),
(373,258,c),
(367,249,o),
(365,239,o),
(366,227,cs),
(367,215,o),
(367,205,o),
(366,196,cs),
(355,127,o),
(302,77,o),
(230,77,cs),
(202,77,o),
(170,84,o),
(147,103,cs),
(123,122,o),
(107,149,o),
(111,192,c),
(135,199,o),
(159,203,o),
(188,208,cs),
(208,211,ls),
(215,212,o),
(223,213,o),
(230,214,cs),
(245,216,o),
(258,218,o),
(266,223,cs),
(278,230,o),
(282,245,o),
(281,258,cs),
(280,271,o),
(272,285,o),
(261,289,cs),
(250,294,o),
(239,296,o),
(226,295,cs),
(201,293,o),
(175,285,o),
(152,278,cs),
(141,275,o),
(132,273,o),
(125,274,c),
(132,304,o),
(141,335,o),
(151,366,cs),
(161,397,o),
(166,430,o),
(166,463,c),
(183,454,o),
(203,449,o),
(227,448,cs),
(250,446,o),
(274,444,o),
(297,441,c),
(295,432,o),
(294,424,o),
(294,415,cs),
(294,398,o),
(297,382,o),
(305,373,cs),
(313,364,o),
(330,359,o),
(346,378,cs),
(361,397,o),
(372,425,o),
(377,453,cs),
(382,481,o),
(376,500,o),
(364,508,cs),
(351,515,o),
(333,515,o),
(314,512,cs),
(304,511,o),
(294,510,o),
(285,510,cs),
(261,510,o),
(239,513,o),
(220,518,cs),
(180,529,o),
(149,543,o),
(122,558,cs),
(109,565,o),
(96,571,o),
(85,575,c),
(84,575,o),
(83,576,o),
(84,577,cs),
(85,578,o),
(84,578,o),
(83,578,cs),
(70,577,o),
(64,572,o),
(63,565,cs),
(61,549,o),
(70,530,o),
(82,514,cs),
(88,506,o),
(91,501,o),
(92,499,cs),
(95,489,o),
(95,478,o),
(93,465,cs),
(90,452,o),
(88,441,o),
(87,430,cs),
(83,409,o),
(78,388,o),
(71,368,cs),
(50,307,ls),
(37,266,o),
(25,222,o),
(28,170,cs),
(29,94,o),
(74,43,o),
(132,17,cs),
(190,-9,o),
(262,-10,o),
(321,14,cs)
);
}
);
width = 440;
}
);
note = E;
unicode = 69;
},
{
glyphname = F;
lastChange = "2024-06-01 13:54:28 +0000";
layers = (
{
layerId = m01;
shapes = (
{
closed = 1;
nodes = (
(233,-10,o),
(243,-8,o),
(253,-5,cs),
(273,1,o),
(289,12,o),
(297,27,cs),
(305,42,o),
(304,60,o),
(284,68,cs),
(264,76,o),
(237,80,o),
(213,84,cs),
(200,85,o),
(191,88,o),
(185,91,c),
(140,120,o),
(117,162,o),
(124,231,c),
(148,236,o),
(172,242,o),
(197,250,cs),
(221,258,o),
(245,265,o),
(270,272,cs),
(319,285,o),
(370,295,o),
(425,290,cs),
(436,289,o),
(447,288,o),
(459,286,cs),
(471,284,o),
(482,284,o),
(492,285,cs),
(512,287,o),
(526,295,o),
(525,323,cs),
(524,344,o),
(506,358,o),
(484,367,cs),
(462,375,o),
(435,378,o),
(415,378,cs),
(364,381,o),
(315,373,o),
(269,362,cs),
(223,351,o),
(180,337,o),
(144,325,c),
(157,370,o),
(173,413,o),
(173,472,c),
(190,467,o),
(213,464,o),
(236,464,cs),
(259,463,o),
(282,465,o),
(301,470,c),
(314,449,o),
(322,426,o),
(350,429,cs),
(367,432,o),
(372,449,o),
(370,470,cs),
(368,490,o),
(360,514,o),
(355,533,cs),
(344,566,o),
(334,591,o),
(320,601,cs),
(306,611,o),
(290,607,o),
(271,583,c),
(268,563,o),
(274,551,o),
(279,536,c),
(198,525,o),
(134,550,o),
(99,594,cs),
(92,603,o),
(86,612,o),
(82,620,cs),
(77,628,o),
(70,634,o),
(61,637,cs),
(54,640,o),
(49,635,o),
(46,629,cs),
(42,623,o),
(41,616,o),
(41,612,cs),
(40,600,o),
(41,590,o),
(46,581,cs),
(54,564,o),
(67,550,o),
(79,537,cs),
(85,530,o),
(89,523,o),
(91,515,cs),
(95,496,o),
(94,474,o),
(87,450,cs),
(74,401,o),
(62,357,o),
(48,313,cs),
(41,291,o),
(36,270,o),
(35,249,cs),
(27,182,o),
(45,118,o),
(80,70,cs),
(115,22,o),
(164,-10,o),
(223,-10,cs)
);
}
);
width = 404;
}
);
note = F;
unicode = 70;
},
{
glyphname = G;
lastChange = "2024-06-01 13:54:28 +0000";
layers = (
{
layerId = m01;
shapes = (
{
closed = 1;
nodes = (
(298,-16,o),
(340,-2,o),
(371,26,cs),
(386,39,o),
(397,59,o),
(403,83,cs),
(409,106,o),
(408,131,o),
(400,152,c),
(413,154,o),
(428,154,o),
(447,152,cs),
(466,150,o),
(484,149,o),
(502,148,cs),
(537,147,o),
(568,151,o),
(572,175,cs),
(575,192,o),
(565,206,o),
(552,215,cs),
(539,223,o),
(522,229,o),
(513,232,cs),
(490,237,o),
(464,240,o),
(437,240,cs),
(381,240,o),
(333,239,o),
(291,229,cs),
(249,219,o),
(211,206,o),
(179,195,cs),
(162,190,o),
(147,186,o),
(132,184,c),
(128,229,o),
(131,279,o),
(132,327,cs),
(133,375,o),
(133,420,o),
(124,457,c),
(141,454,o),
(158,452,o),
(177,452,cs),
(196,452,o),
(214,454,o),
(231,457,c),
(228,442,o),
(229,420,o),
(233,401,cs),
(236,381,o),
(243,366,o),
(256,366,cs),
(261,366,o),
(265,368,o),
(270,373,cs),
(278,381,o),
(285,394,o),
(292,409,cs),
(299,424,o),
(303,438,o),
(311,463,cs),
(314,475,o),
(316,487,o),
(317,499,cs),
(318,523,o),
(312,543,o),
(287,548,c),
(271,549,o),
(255,545,o),
(238,538,cs),
(221,531,o),
(202,523,o),
(182,522,cs),
(151,519,o),
(109,522,o),
(85,533,c),
(81,534,o),
(75,537,o),
(68,544,cs),
(60,551,o),
(52,557,o),
(43,562,cs),
(26,573,o),
(10,579,o),
(6,559,cs),
(3,546,o),
(4,535,o),
(9,526,cs),
(20,509,o),
(38,495,o),
(56,484,cs),
(74,472,o),
(80,462,o),
(81,443,cs),
(82,433,o),
(83,423,o),
(85,414,c),
(86,379,o),
(81,345,o),
(76,309,cs),
(71,273,o),
(65,237,o),
(65,198,c),
(61,199,o),
(58,200,o),
(55,203,c),
(46,209,ls),
(40,213,o),
(33,214,o),
(25,210,c),
(21,199,o),
(20,189,o),
(23,180,cs),
(27,162,o),
(39,148,o),
(55,137,cs),
(62,131,o),
(69,126,o),
(75,121,c),
(76,77,o),
(101,42,o),
(134,19,cs),
(167,-5,o),
(211,-17,o),
(255,-16,cs)
);
},
{
closed = 1;
nodes = (
(225,62,o),
(177,70,o),
(154,105,c),
(187,112,o),
(218,122,o),
(250,131,cs),
(281,140,o),
(314,147,o),
(351,150,c),
(347,110,o),
(309,82,o),
(267,72,cs)
);
}
);
width = 523;
}
);
note = G;
unicode = 71;
},
{
glyphname = H;
lastChange = "2024-06-01 13:54:28 +0000";
layers = (
{
layerId = m01;
shapes = (
{
closed = 1;
nodes = (
(472,-48,o),
(482,-28,o),
(486,0,cs),
(489,27,o),
(484,59,o),
(480,84,cs),
(475,121,o),
(469,156,o),
(464,189,cs),
(458,222,o),
(452,254,o),
(447,287,cs),
(436,352,o),
(426,421,o),
(421,505,cs),
(420,515,o),
(420,529,o),
(420,546,cs),
(419,563,o),
(418,581,o),
(416,599,cs),
(412,634,o),
(404,664,o),
(391,668,cs),
(368,673,o),
(358,654,o),
(353,627,cs),
(348,599,o),
(348,564,o),
(348,539,cs),
(347,501,o),
(348,464,o),
(349,429,cs),
(350,393,o),
(351,361,o),
(351,333,c),
(294,336,o),
(233,324,o),
(184,308,c),
(181,347,ls),
(180,361,o),
(180,375,o),
(179,389,cs),
(177,416,o),
(173,442,o),
(168,462,c),
(164,471,o),
(159,485,o),
(151,494,cs),
(142,502,o),
(130,507,o),
(117,502,c),
(111,492,o),
(109,480,o),
(110,467,cs),
(111,454,o),
(111,439,o),
(111,424,cs),
(111,401,o),
(110,378,o),
(109,355,cs),
(108,332,o),
(107,309,o),
(107,286,c),
(97,283,o),
(84,281,o),
(68,278,cs),
(36,272,o),
(8,262,o),
(-4,243,cs),
(-16,224,o),
(4,198,o),
(20,194,cs),
(36,189,o),
(56,190,o),
(77,193,cs),
(105,196,l),
(105,157,o),
(115,101,o),
(136,60,cs),
(156,19,o),
(188,-8,o),
(231,15,c),
(230,51,o),
(217,79,o),
(205,111,cs),
(193,142,o),
(181,174,o),
(184,215,c),
(237,233,o),
(297,243,o),
(363,246,c),
(367,213,o),
(373,178,o),
(382,142,cs),
(390,106,o),
(395,70,o),
(398,34,cs),
(399,13,o),
(402,-8,o),
(408,-23,cs),
(414,-39,o),
(425,-49,o),
(445,-49,cs)
);
}
);
width = 509;
}
);
note = H;
unicode = 72;
},
{
glyphname = I;
lastChange = "2024-06-01 13:54:28 +0000";
layers = (
{
layerId = m01;
shapes = (
{
closed = 1;
nodes = (
(12,-4,o),
(24,-2,o),
(37,4,cs),
(50,10,o),
(65,14,o),
(82,17,cs),
(96,21,o),
(111,24,o),
(127,26,cs),
(159,29,o),
(187,30,o),
(228,26,cs),
(269,22,o),
(312,22,o),
(341,31,cs),
(369,40,o),
(365,74,o),
(345,85,cs),
(324,96,o),
(293,97,o),
(261,97,cs),
(245,97,o),
(231,98,o),
(219,100,c),
(214,156,o),
(209,212,o),
(205,269,cs),
(201,326,o),
(195,381,o),
(188,434,c),
(199,437,o),
(211,440,o),
(224,441,cs),
(237,442,o),
(250,443,o),
(262,445,cs),
(286,449,o),
(305,457,o),
(309,478,cs),
(314,514,o),
(290,527,o),
(255,524,cs),
(232,523,o),
(200,517,o),
(165,510,cs),
(148,506,o),
(131,503,o),
(114,500,cs),
(80,494,o),
(52,491,o),
(33,490,cs),
(24,489,o),
(17,485,o),
(14,478,cs),
(6,454,o),
(23,440,o),
(45,433,cs),
(67,425,o),
(95,425,o),
(115,426,c),
(115,369,o),
(117,312,o),
(121,256,cs),
(125,199,o),
(128,146,o),
(131,95,c),
(100,90,o),
(60,85,o),
(32,71,cs),
(4,57,o),
(-14,35,o),
(-1,-1,c)
);
}
);
width = 362;
}
);
note = I;
unicode = 73;
},
{
glyphname = J;
lastChange = "2024-06-01 13:54:28 +0000";
layers = (
{
layerId = m01;
shapes = (
{
closed = 1;
nodes = (
(238,-4,o),
(292,23,o),
(319,48,c),
(340,71,o),
(344,97,o),
(340,125,cs),
(335,152,o),
(322,178,o),
(311,201,cs),
(288,248,o),
(268,287,o),
(254,332,cs),
(240,376,o),
(231,426,o),
(231,493,c),
(240,498,o),
(253,501,o),
(268,503,cs),
(283,504,o),
(298,506,o),
(313,508,cs),
(343,512,o),
(367,519,o),
(370,539,cs),
(371,558,o),
(359,567,o),
(343,572,cs),
(326,577,o),
(304,577,o),
(287,576,cs),
(223,571,o),
(171,551,o),
(100,522,cs),
(83,515,o),
(48,503,o),
(18,485,cs),
(-12,467,o),
(-39,445,o),
(-36,425,cs),
(-33,402,o),
(-12,402,o),
(10,407,cs),
(32,412,o),
(54,424,o),
(59,427,cs),
(94,444,o),
(127,456,o),
(158,464,c),
(156,429,o),
(158,397,o),
(165,366,cs),
(178,304,o),
(201,246,o),
(227,193,cs),
(240,166,o),
(252,140,o),
(263,114,c),
(228,87,o),
(192,66,o),
(136,63,c),
(131,69,o),
(129,78,o),
(128,90,cs),
(127,114,o),
(128,128,o),
(135,164,cs),
(138,181,o),
(141,198,o),
(143,215,cs),
(146,247,o),
(141,276,o),
(114,277,cs),
(107,278,o),
(102,276,o),
(97,271,cs),
(87,262,o),
(78,248,o),
(73,233,cs),
(70,226,o),
(68,219,o),
(66,214,cs),
(55,187,o),
(47,153,o),
(44,118,cs),
(40,83,o),
(44,49,o),
(59,24,cs),
(82,-19,o),
(134,-26,o),
(186,-15,cs)
);
}
);
width = 378;
}
);
note = J;
unicode = 74;
},
{
glyphname = K;
lastChange = "2024-06-01 13:54:28 +0000";
layers = (
{
layerId = m01;
shapes = (
{
closed = 1;
nodes = (
(401,-221,o),
(411,-204,o),
(416,-182,cs),
(421,-160,o),
(423,-134,o),
(426,-107,cs),
(438,45,ls),
(442,95,o),
(444,148,o),
(444,205,cs),
(444,246,ls),
(444,275,o),
(441,304,o),
(434,324,cs),
(426,344,o),
(406,352,o),
(391,345,cs),
(365,333,l),
(349,328,o),
(333,323,o),
(316,319,cs),
(299,315,o),
(285,310,o),
(274,305,c),
(283,319,o),
(293,334,o),
(306,349,cs),
(319,364,o),
(331,381,o),
(343,398,cs),
(366,432,o),
(387,468,o),
(392,507,cs),
(393,523,o),
(388,547,o),
(381,561,cs),
(373,575,o),
(362,581,o),
(353,564,c),
(336,541,o),
(320,514,o),
(306,485,cs),
(292,456,o),
(276,428,o),
(258,402,cs),
(221,351,o),
(180,307,o),
(124,279,c),
(121,302,o),
(119,324,o),
(117,344,cs),
(115,364,o),
(112,387,o),
(108,412,cs),
(102,452,ls),
(100,466,o),
(97,479,o),
(93,492,cs),
(85,517,o),
(72,537,o),
(48,538,cs),
(20,539,o),
(8,527,o),
(4,508,cs),
(-1,489,o),
(3,465,o),
(8,441,cs),
(13,410,o),
(20,375,o),
(25,341,cs),
(30,307,o),
(35,272,o),
(38,247,c),
(27,246,o),
(16,246,o),
(5,245,cs),
(-18,244,o),
(-36,240,o),
(-47,231,cs),
(-59,222,o),
(-58,199,o),
(-46,191,cs),
(-34,182,o),
(-14,178,o),
(10,178,cs),
(46,178,l),
(49,165,o),
(51,149,o),
(53,131,cs),
(56,94,o),
(65,58,o),
(82,38,cs),
(99,18,o),
(137,27,o),
(143,55,cs),
(149,83,o),
(146,121,o),
(140,157,cs),
(137,175,o),
(135,190,o),
(135,202,c),
(172,217,o),
(209,232,o),
(246,248,cs),
(283,263,o),
(322,277,o),
(363,289,c),
(367,221,o),
(360,145,o),
(353,70,cs),
(345,-5,o),
(338,-79,o),
(345,-144,cs),
(348,-179,o),
(353,-212,o),
(381,-228,c)
);
}
);
width = 461;
}
);
note = K;
unicode = 75;
},
{
glyphname = L;
lastChange = "2024-06-01 13:54:28 +0000";
layers = (
{
layerId = m01;
shapes = (
{
closed = 1;
nodes = (
(103,-15,o),
(117,-15,o),
(130,-14,cs),
(171,-13,o),
(210,-12,o),
(246,-13,cs),
(282,-14,o),
(320,-14,o),
(360,-14,cs),
(369,-14,o),
(378,-14,o),
(389,-15,cs),
(399,-16,o),
(409,-16,o),
(420,-16,cs),
(430,-16,o),
(440,-16,o),
(449,-15,cs),
(467,-14,o),
(493,-8,o),
(498,16,cs),
(503,39,o),
(495,68,o),
(480,97,cs),
(473,112,o),
(467,125,o),
(462,137,cs),
(431,213,o),
(411,285,o),
(392,354,cs),
(389,363,o),
(386,373,o),
(384,383,cs),
(382,392,o),
(379,401,o),
(376,410,cs),
(369,427,o),
(361,443,o),
(345,452,c),
(332,438,o),
(322,421,o),
(317,402,cs),
(306,363,o),
(308,319,o),
(317,272,cs),
(326,225,o),
(339,181,o),
(351,142,cs),
(357,123,o),
(362,106,o),
(365,92,c),
(205,92,l),
(204,152,o),
(202,234,o),
(198,314,cs),
(193,394,o),
(183,473,o),
(163,529,cs),
(155,549,o),
(142,578,o),
(126,598,cs),
(109,618,o),
(89,628,o),
(66,611,c),
(63,606,o),
(62,599,o),
(64,592,cs),
(68,577,o),
(77,560,o),
(86,543,cs),
(91,534,o),
(94,526,o),
(96,517,cs),
(113,453,o),
(114,378,o),
(113,303,cs),
(112,228,o),
(109,153,o),
(118,89,c),
(74,86,ls),
(45,85,o),
(21,79,o),
(9,64,cs),
(-4,49,o),
(-4,11,o),
(13,-2,cs),
(30,-15,o),
(57,-18,o),
(88,-16,cs)
);
}
);
width = 502;
}
);
note = L;
unicode = 76;
},
{
glyphname = M;
lastChange = "2024-06-01 13:54:28 +0000";
layers = (
{
layerId = m01;
shapes = (
{
closed = 1;
nodes = (
(528,-103,o),
(534,-82,o),
(539,-58,cs),
(548,-10,o),
(552,44,o),
(552,103,cs),
(551,162,o),
(548,218,o),
(544,272,cs),
(541,299,o),
(539,327,o),
(538,357,cs),
(537,369,o),
(536,383,o),
(536,398,cs),
(535,429,o),
(533,460,o),
(529,487,cs),
(525,514,o),
(512,543,o),
(485,543,cs),
(458,542,o),
(430,523,o),
(406,500,cs),
(394,489,o),
(385,480,o),
(378,474,cs),
(361,459,o),
(345,446,o),
(332,434,cs),
(318,422,o),
(305,411,o),
(293,402,c),
(292,421,o),
(287,435,o),
(278,444,cs),
(259,463,o),
(229,470,o),
(193,473,cs),
(175,474,o),
(157,476,o),
(138,479,cs),
(111,483,o),
(88,492,o),
(68,500,cs),
(48,508,o),
(31,513,o),
(15,509,cs),
(-6,506,o),
(-17,482,o),
(-14,469,c),
(-14,462,o),
(-12,456,o),
(-8,452,cs),
(-1,443,o),
(9,437,o),
(21,432,cs),
(26,429,o),
(31,426,o),
(36,421,c),
(44,308,o),
(55,195,o),
(76,87,cs),
(79,72,o),
(83,52,o),
(90,36,cs),
(97,20,o),
(107,7,o),
(122,7,c),
(141,10,o),
(151,36,o),
(154,52,cs),
(158,80,o),
(159,109,o),
(156,138,cs),
(151,197,o),
(140,257,o),
(131,314,cs),
(126,343,o),
(124,370,o),
(124,397,c),
(135,394,o),
(148,392,o),
(162,391,cs),
(175,390,o),
(189,389,o),
(202,386,c),
(206,361,o),
(211,335,o),
(217,309,cs),
(223,282,o),
(229,256,o),
(234,229,cs),
(237,216,o),
(239,203,o),
(241,190,cs),
(243,177,o),
(246,164,o),
(249,151,cs),
(256,126,o),
(266,103,o),
(285,87,c),
(302,112,o),
(309,152,o),
(310,194,cs),
(311,236,o),
(309,280,o),
(306,319,c),
(329,336,o),
(351,356,o),
(373,377,cs),
(394,398,o),
(416,416,o),
(439,429,c),
(442,383,o),
(446,335,o),
(450,284,cs),
(453,233,o),
(457,183,o),
(461,135,cs),
(462,110,o),
(464,86,o),
(465,62,cs),
(466,37,o),
(468,14,o),
(471,-8,cs),
(478,-52,o),
(491,-92,o),
(519,-121,c)
);
}
);
width = 574;
}
);
note = M;
unicode = 77;
},
{
glyphname = N;
lastChange = "2024-06-01 13:54:28 +0000";
layers = (
{
layerId = m01;
shapes = (
{
closed = 1;
nodes = (
(361,-88,o),
(393,-91,o),
(406,-66,c),
(407,-51,o),
(406,-36,o),
(405,-23,cs),
(401,3,o),
(395,28,o),
(388,55,cs),
(385,68,o),
(382,83,o),
(380,99,cs),
(363,220,o),
(365,349,o),
(376,470,cs),
(377,482,o),
(378,494,o),
(380,507,cs),
(384,532,o),
(383,553,o),
(372,565,cs),
(361,576,o),
(330,574,o),
(319,559,cs),
(308,544,o),
(304,522,o),
(304,498,cs),
(303,485,o),
(303,474,o),
(302,463,cs),
(297,408,o),
(294,359,o),
(294,311,cs),
(293,263,o),
(296,216,o),
(300,163,c),
(230,228,ls),
(205,249,o),
(184,271,o),
(166,292,cs),
(126,341,o),
(86,396,o),
(71,461,cs),
(68,472,o),
(66,484,o),
(65,495,cs),
(62,518,o),
(57,536,o),
(46,547,cs),
(34,558,o),
(6,554,o),
(-2,539,cs),
(-10,524,o),
(-10,503,o),
(-5,480,cs),
(-1,456,o),
(3,437,o),
(11,414,cs),
(19,391,o),
(24,369,o),
(24,330,cs),
(23,310,o),
(24,290,o),
(27,271,cs),
(30,232,o),
(34,196,o),
(39,165,cs),
(44,133,o),
(50,99,o),
(56,63,cs),
(59,48,o),
(63,27,o),
(69,11,cs),
(75,-6,o),
(82,-20,o),
(94,-19,cs),
(105,-18,o),
(110,-7,o),
(111,6,cs),
(111,19,o),
(110,35,o),
(109,46,cs),
(107,68,o),
(105,89,o),
(102,109,cs),
(99,128,o),
(97,147,o),
(95,166,cs),
(92,185,o),
(90,203,o),
(88,222,cs),
(85,240,o),
(83,259,o),
(82,279,c),
(93,264,o),
(107,249,o),
(122,234,cs),
(152,202,o),
(184,171,o),
(217,140,cs),
(262,95,ls),
(271,86,o),
(282,75,o),
(294,64,cs),
(318,40,o),
(324,21,o),
(328,-4,cs),
(331,-29,o),
(336,-55,o),
(349,-71,cs)
);
}
);
width = 424;
}
);
note = N;
unicode = 78;
},
{
glyphname = O;
lastChange = "2024-06-01 13:54:28 +0000";
layers = (
{
layerId = m01;
shapes = (
{
closed = 1;
nodes = (
(273,122,o),
(334,162,o),
(377,207,cs),
(422,254,o),
(451,315,o),
(456,387,cs),
(457,435,o),
(444,475,o),
(419,500,cs),
(394,525,o),
(356,537,o),
(311,532,cs),
(270,529,ls),
(255,528,o),
(241,525,o),
(226,520,cs),
(201,513,o),
(177,494,o),
(154,471,cs),
(139,456,o),
(123,441,o),
(105,426,cs),
(87,410,o),
(70,393,o),
(55,376,cs),
(24,340,o),
(1,300,o),
(5,252,c),
(8,251,o),
(12,253,o),
(15,256,cs),
(22,263,o),
(29,271,o),
(35,279,cs),
(38,282,o),
(40,284,o),
(43,284,c),
(39,229,o),
(52,185,o),
(81,155,cs),
(110,125,o),
(155,108,o),
(212,115,cs)
);
},
{
closed = 1;
nodes = (
(170,-55,o),
(186,-45,o),
(202,-35,cs),
(209,-30,o),
(216,-26,o),
(223,-23,cs),
(284,9,o),
(343,31,o),
(415,51,cs),
(423,53,o),
(432,55,o),
(443,57,cs),
(454,59,o),
(464,61,o),
(474,64,cs),
(494,68,o),
(512,74,o),
(519,83,cs),
(532,103,o),
(531,119,o),
(521,130,cs),
(511,141,o),
(491,145,o),
(474,144,cs),
(453,143,o),
(434,139,o),
(416,134,cs),
(398,128,o),
(380,122,o),
(363,117,cs),
(326,105,o),
(295,95,o),
(265,83,cs),
(235,70,o),
(205,55,o),
(172,38,cs),
(159,31,o),
(141,23,o),
(126,12,cs),
(110,1,o),
(99,-10,o),
(99,-25,cs),
(99,-34,o),
(102,-43,o),
(109,-51,cs),
(121,-68,o),
(139,-69,o),
(155,-62,cs)
);
},
{
closed = 1;
nodes = (
(138,177,o),
(113,213,o),
(110,258,cs),
(106,302,o),
(124,356,o),
(151,387,cs),
(163,402,o),
(186,419,o),
(214,432,cs),
(241,445,o),
(271,456,o),
(298,459,cs),
(314,462,o),
(347,466,o),
(363,455,cs),
(384,440,o),
(387,407,o),
(381,374,cs),
(375,341,o),
(361,307,o),
(352,290,cs),
(339,267,o),
(315,243,o),
(288,223,cs),
(260,203,o),
(229,188,o),
(201,184,cs)
);
}
);
width = 523;
}
);
note = O;
unicode = 79;
},
{
glyphname = P;
lastChange = "2024-06-01 13:54:28 +0000";
layers = (
{
layerId = m01;
shapes = (
{
closed = 1;
nodes = (
(119,-45,o),
(127,-31,o),
(132,-14,cs),
(140,21,o),
(142,64,o),
(140,109,cs),
(139,131,o),
(139,152,o),
(140,172,c),
(151,167,o),
(163,164,o),
(176,164,cs),
(200,163,o),
(225,169,o),
(249,178,cs),
(273,186,o),
(295,198,o),
(316,210,cs),
(337,221,o),
(355,235,o),
(364,255,cs),
(372,275,o),
(365,306,o),
(354,342,cs),
(349,359,o),
(343,381,o),
(337,406,cs),
(331,436,ls),
(327,459,o),
(323,481,o),
(317,501,cs),
(311,520,o),
(302,531,o),
(290,535,cs),
(277,539,o),
(263,538,o),
(250,535,cs),
(231,532,ls),
(202,529,o),
(177,531,o),
(155,536,cs),
(111,547,o),
(91,568,o),
(79,590,cs),
(73,601,o),
(65,607,o),
(56,609,cs),
(32,616,o),
(22,604,o),
(19,588,cs),
(16,572,o),
(22,553,o),
(33,545,c),
(28,530,o),
(27,515,o),
(30,500,cs),
(33,485,o),
(35,468,o),
(38,450,cs),
(45,391,o),
(50,328,o),
(54,263,cs),
(57,198,o),
(63,134,o),
(70,72,c),
(71,48,o),
(73,23,o),
(78,1,cs),
(82,-21,o),
(91,-42,o),
(108,-55,c)
);
},
{
closed = 1;
nodes = (
(162,244,o),
(148,247,o),
(135,254,c),
(128,333,o),
(122,406,o),
(114,479,c),
(149,464,o),
(195,461,o),
(242,464,c),
(255,405,o),
(270,345,o),
(285,288,c),
(277,281,o),
(267,275,o),
(256,268,cs),
(232,254,o),
(205,244,o),
(177,244,cs)
);
}
);
width = 373;
}
);
note = P;
unicode = 80;
},
{
glyphname = Q;
lastChange = "2024-06-01 13:54:28 +0000";
layers = (
{
layerId = m01;
shapes = (
{
closed = 1;
nodes = (
(439,-64,o),
(455,-57,o),
(469,-45,cs),
(483,-34,o),
(495,-19,o),
(506,-7,cs),
(515,3,o),
(524,13,o),
(533,22,cs),
(542,31,o),
(549,41,o),
(556,52,cs),
(569,72,o),
(577,95,o),
(573,126,c),
(555,126,o),
(540,124,o),
(527,119,cs),
(502,109,o),
(481,93,o),
(464,75,cs),
(437,48,l),
(431,63,o),
(424,78,o),
(415,93,cs),
(389,134,l),
(428,171,o),
(466,231,o),
(484,295,cs),
(502,359,o),
(499,427,o),
(458,478,cs),
(431,513,o),
(390,535,o),
(343,545,cs),
(295,555,o),
(243,553,o),
(200,539,cs),
(156,525,o),
(119,498,o),
(103,461,c),
(68,440,o),
(40,399,o),
(21,351,cs),
(1,302,o),
(-8,246,o),
(-4,194,cs),
(0,141,o),
(19,92,o),
(55,59,cs),
(91,27,o),
(142,20,o),
(192,28,cs),
(242,35,o),
(291,55,o),
(323,79,c),
(343,43,ls),
(349,31,o),
(357,17,o),
(366,2,cs),
(371,-9,o),
(380,-24,o),
(389,-36,cs),
(397,-49,o),
(409,-60,o),
(422,-61,cs)
);
},
{
closed = 1;
nodes = (
(87,125,o),
(71,159,o),
(67,198,cs),
(62,237,o),
(69,281,o),
(82,321,cs),
(95,361,o),
(114,395,o),
(134,415,cs),
(167,450,o),
(228,477,o),
(275,480,cs),
(326,484,o),
(369,459,o),
(393,434,cs),
(420,403,o),
(421,358,o),
(409,315,cs),
(396,271,o),
(370,229,o),
(345,208,c),
(332,230,o),
(318,254,o),
(304,280,cs),
(289,306,o),
(273,328,o),
(256,347,cs),
(251,352,o),
(245,357,o),
(238,362,cs),
(222,372,o),
(206,377,o),
(194,371,cs),
(182,365,o),
(179,341,o),
(185,325,cs),
(191,308,o),
(202,290,o),
(215,274,cs),
(221,265,o),
(226,257,o),
(230,250,cs),
(241,232,o),
(250,215,o),
(258,200,cs),
(265,184,o),
(273,169,o),
(281,154,c),
(265,139,o),
(239,121,o),
(211,110,cs),
(182,98,o),
(149,93,o),
(120,108,cs)
);
}
);
width = 548;
}
);
note = Q;
unicode = 81;
},
{
glyphname = R;
lastChange = "2024-06-01 13:54:28 +0000";
layers = (
{
layerId = m01;
shapes = (
{
closed = 1;
nodes = (
(415,-119,o),
(430,-83,o),
(445,-46,cs),
(452,-28,o),
(460,-10,o),
(468,8,cs),
(483,44,o),
(495,71,o),
(511,93,cs),
(518,104,o),
(523,114,o),
(526,124,c),
(531,169,o),
(503,203,o),
(486,222,cs),
(453,257,o),
(406,285,o),
(362,300,c),
(371,327,ls),
(376,343,o),
(378,362,o),
(380,394,cs),
(381,409,o),
(380,425,o),
(379,440,cs),
(376,470,o),
(369,495,o),
(353,502,cs),
(336,509,o),
(305,505,o),
(278,502,c),
(199,499,o),
(142,502,o),
(90,523,cs),
(77,528,o),
(67,534,o),
(58,541,cs),
(49,548,o),
(39,552,o),
(26,554,cs),
(15,555,o),
(7,551,o),
(0,543,cs),
(-7,535,o),
(-10,525,o),
(-9,517,cs),
(-8,507,o),
(-5,499,o),
(2,493,cs),
(14,481,o),
(32,471,o),
(51,462,cs),
(60,457,o),
(69,452,o),
(76,445,c),
(81,398,o),
(75,350,o),
(67,302,cs),
(58,253,o),
(48,205,o),
(48,162,cs),
(47,118,o),
(54,78,o),
(82,46,cs),
(85,43,o),
(91,39,o),
(100,33,cs),
(119,20,o),
(141,10,o),
(159,14,cs),
(177,17,o),
(178,42,o),
(171,54,cs),
(163,66,o),
(153,78,o),
(142,90,cs),
(137,95,o),
(133,101,o),
(131,106,cs),
(115,139,o),
(117,168,o),
(122,211,c),
(150,223,o),
(198,233,o),
(246,236,cs),
(294,239,o),
(342,234,o),
(373,218,cs),
(381,214,o),
(401,201,o),
(418,186,cs),
(434,171,o),
(449,154,o),
(449,141,cs),
(449,136,o),
(446,128,o),
(439,118,cs),
(432,107,o),
(426,98,o),
(423,89,c),
(407,60,o),
(389,17,o),
(381,-26,cs),
(373,-70,o),
(373,-114,o),
(396,-146,c)
);
},
{
closed = 1;
nodes = (
(132,297,o),
(131,308,o),
(132,321,cs),
(132,334,o),
(132,347,o),
(133,360,cs),
(133,387,o),
(133,413,o),
(129,434,c),
(180,426,o),
(241,423,o),
(301,428,c),
(298,384,o),
(302,345,o),
(309,308,c),
(246,308,o),
(181,306,o),
(133,286,c)
);
}
);
width = 524;
}
);
note = R;
unicode = 82;
},
{
glyphname = S;
lastChange = "2024-06-01 13:54:28 +0000";
layers = (
{
layerId = m01;
shapes = (
{
closed = 1;
nodes = (
(218,-40,o),
(271,-27,o),
(317,-5,cs),
(363,17,o),
(402,46,o),
(419,81,cs),
(431,108,o),
(433,144,o),
(426,174,cs),
(418,204,o),
(401,230,o),
(376,239,cs),
(349,248,o),
(314,246,o),
(279,243,cs),
(244,239,o),
(212,238,o),
(189,250,cs),
(165,265,o),
(157,300,o),
(158,340,cs),
(159,380,o),
(168,424,o),
(176,453,c),
(191,456,o),
(207,460,o),
(222,464,cs),
(270,473,l),
(266,463,o),
(261,453,o),
(256,442,cs),
(241,408,ls),
(232,385,o),
(224,360,o),
(228,333,c),
(228,326,o),
(231,315,o),
(237,305,cs),
(243,295,o),
(253,286,o),
(266,286,cs),
(286,286,o),
(295,311,o),
(302,324,c),
(307,339,o),
(311,355,o),
(315,373,cs),
(319,390,o),
(327,409,o),
(338,430,cs),
(350,452,l),
(361,468,o),
(372,486,o),
(379,503,cs),
(386,520,o),
(384,543,o),
(368,550,cs),
(351,557,o),
(330,554,o),
(308,547,cs),
(297,543,o),
(287,540,o),
(279,538,cs),
(247,530,o),
(215,521,o),
(184,512,cs),
(152,502,o),
(120,496,o),
(88,493,cs),
(81,492,o),
(74,493,o),
(66,494,cs),
(58,495,o),
(50,497,o),
(43,498,cs),
(28,500,o),
(15,498,o),
(11,489,c),
(0,472,o),
(17,457,o),
(41,448,cs),
(64,439,o),
(94,436,o),
(110,441,c),
(101,422,o),
(94,401,o),
(90,379,cs),
(81,334,o),
(82,289,o),
(97,250,cs),
(112,210,o),
(138,184,o),
(171,175,cs),
(203,166,o),
(242,164,o),
(285,165,cs),
(306,165,o),
(328,164,o),
(351,162,c),
(359,129,o),
(343,102,o),
(316,82,cs),
(288,62,o),
(249,49,o),
(212,45,cs),
(175,40,o),
(139,43,o),
(119,58,c),
(108,46,o),
(102,35,o),
(102,24,cs),
(102,13,o),
(106,4,o),
(113,-5,cs),
(127,-22,o),
(153,-35,o),
(178,-36,cs)
);
}
);
width = 448;
}
);
note = S;
unicode = 83;
},
{
glyphname = T;
layers = (
{
layerId = m01;
shapes = (
{
closed = 1;
nodes = (
(457,641,o),
(442,657,o),
(405,652,cs),
(350,644,o),
(293,620,o),
(236,596,cs),
(179,572,o),
(119,548,o),
(62,541,cs),
(47,540,o),
(33,539,o),
(20,539,cs),
(-6,538,o),
(-15,518,o),
(-14,504,cs),
(-13,490,o),
(-4,479,o),
(8,470,cs),
(21,458,l),
(40,434,o),
(55,401,o),
(67,365,cs),
(79,328,o),
(88,286,o),
(93,246,cs),
(94,241,o),
(94,234,o),
(95,226,cs),
(95,217,o),
(96,209,o),
(97,202,cs),
(100,187,o),
(105,175,o),
(117,176,cs),
(126,177,o),
(133,197,o),
(135,220,cs),
(137,243,o),
(137,270,o),
(137,285,c),
(134,314,o),
(126,348,o),
(116,380,cs),
(106,411,o),
(93,442,o),
(84,466,c),
(102,467,o),
(118,471,o),
(133,476,cs),
(147,481,o),
(163,486,o),
(180,489,c),
(189,442,o),
(195,392,o),
(199,339,cs),
(202,286,o),
(206,234,o),
(211,182,cs),
(219,78,o),
(232,-22,o),
(268,-99,c),
(297,-15,o),
(305,95,o),
(302,207,cs),
(298,319,o),
(283,433,o),
(271,524,c),
(288,529,o),
(305,536,o),
(320,543,cs),
(335,550,o),
(353,555,o),
(372,559,c),
(369,507,o),
(366,447,o),
(369,387,cs),
(370,373,o),
(370,359,o),
(371,344,cs),
(371,315,o),
(373,286,o),
(377,259,cs),
(381,231,o),
(389,206,o),
(406,186,cs),
(415,175,o),
(420,165,o),
(421,153,c),
(420,162,o),
(421,169,o),
(424,176,cs),
(428,189,o),
(434,199,o),
(441,209,cs),
(444,214,o),
(447,219,o),
(449,225,cs),
(456,250,o),
(460,279,o),
(461,313,cs),
(462,346,o),
(464,379,o),
(465,411,cs),
(465,426,o),
(465,443,o),
(464,460,cs),
(463,495,o),
(465,531,o),
(466,567,cs),
(467,584,o),
(466,600,o),
(463,614,cs)
);
},
{
closed = 1;
nodes = (
(421,152,o),
(421,152,o),
(421,151,cs),
(421,153,ls)
);
}
);
width = 497;
}
);
note = T;
unicode = 84;
},
{
glyphname = U;
lastChange = "2024-06-01 13:54:28 +0000";
layers = (
{
layerId = m01;
shapes = (
{
closed = 1;
nodes = (
(622,-28,o),
(633,-17,o),
(642,-4,cs),
(650,8,o),
(655,25,o),
(655,40,cs),
(655,57,o),
(652,71,o),
(646,83,cs),
(634,107,o),
(616,126,o),
(596,143,cs),
(586,151,o),
(577,160,o),
(569,169,cs),
(541,198,o),
(515,229,o),
(495,266,cs),
(475,302,o),
(461,343,o),
(460,398,cs),
(459,409,o),
(460,423,o),
(462,438,cs),
(465,484,ls),
(466,514,o),
(463,538,o),
(450,545,cs),
(423,558,o),
(407,544,o),
(396,523,cs),
(384,502,o),
(379,474,o),
(376,461,cs),
(369,425,o),
(369,382,o),
(374,342,cs),
(379,302,o),
(389,264,o),
(405,240,c),
(395,228,o),
(386,216,o),
(377,203,cs),
(350,164,ls),
(331,138,o),
(311,115,o),
(283,99,c),
(265,109,o),
(249,119,o),
(236,130,cs),
(208,150,o),
(186,171,o),
(162,194,cs),
(150,205,o),
(136,217,o),
(121,229,c),
(154,278,o),
(167,333,o),
(167,378,cs),
(166,422,o),
(150,457,o),
(129,469,c),
(124,425,o),
(114,388,o),
(100,357,cs),
(71,296,o),
(40,255,o),
(20,229,cs),
(9,216,o),
(5,205,o),
(8,196,cs),
(9,193,o),
(11,189,o),
(15,186,cs),
(23,178,o),
(36,170,o),
(49,163,cs),
(56,159,o),
(62,155,o),
(68,151,cs),
(81,142,o),
(94,132,o),
(108,119,cs),
(121,106,o),
(135,93,o),
(150,80,cs),
(179,53,o),
(211,29,o),
(244,17,cs),
(277,5,o),
(313,5,o),
(352,30,cs),
(399,58,o),
(426,105,o),
(447,169,c),
(466,146,o),
(487,123,o),
(510,101,cs),
(533,79,o),
(554,54,o),
(571,25,cs),
(582,4,o),
(595,-22,o),
(610,-25,cs)
);
}
);
width = 657;
}
);
note = U;
unicode = 85;
},
{
glyphname = V;
lastChange = "2024-06-01 13:54:28 +0000";
layers = (
{
layerId = m01;
shapes = (
{
closed = 1;
nodes = (
(338,-103,o),
(350,-98,o),
(354,-83,cs),
(357,-70,o),
(356,-59,o),
(351,-49,cs),
(342,-30,o),
(325,-15,o),
(309,0,cs),
(300,7,o),
(294,15,o),
(289,22,c),
(301,218,o),
(351,373,o),
(416,512,cs),
(421,524,o),
(426,536,o),
(433,548,cs),
(440,559,o),
(446,571,o),
(452,583,cs),
(464,607,o),
(473,630,o),
(474,657,c),
(463,670,o),
(454,665,o),
(446,660,cs),
(401,637,o),
(376,590,o),
(351,542,cs),
(319,485,o),
(287,413,o),
(263,338,cs),
(239,263,o),
(221,184,o),
(216,112,c),
(185,235,o),
(147,344,o),
(84,432,c),
(92,437,o),
(100,441,o),
(109,446,cs),
(118,451,o),
(126,456,o),
(134,462,cs),
(149,474,o),
(160,490,o),
(161,515,c),
(156,522,o),
(141,532,o),
(134,532,c),
(107,536,o),
(62,522,o),
(23,502,cs),
(-17,481,o),
(-50,455,o),
(-51,435,c),
(-55,410,o),
(-42,394,o),
(-24,388,cs),
(-6,382,o),
(16,386,o),
(31,399,c),
(71,308,o),
(116,210,o),
(136,107,c),
(101,123,o),
(73,114,o),
(61,96,cs),
(48,78,o),
(51,51,o),
(79,34,cs),
(92,26,o),
(111,19,o),
(131,11,cs),
(151,3,o),
(172,-6,o),
(191,-18,cs),
(208,-29,o),
(224,-42,o),
(239,-57,cs),
(254,-72,o),
(269,-84,o),
(284,-93,cs),
(296,-101,o),
(312,-105,o),
(325,-104,cs)
);
}
);
width = 483;
}
);
note = V;
unicode = 86;
},
{
glyphname = W;
lastChange = "2024-06-01 13:54:28 +0000";
layers = (
{
layerId = m01;
shapes = (
{
closed = 1;
nodes = (
(371,-69,o),
(389,-62,o),
(406,-51,cs),
(415,-46,o),
(422,-41,o),
(429,-37,cs),
(460,-17,o),
(497,6,o),
(535,24,cs),
(573,42,o),
(612,56,o),
(648,61,cs),
(655,62,o),
(664,63,o),
(674,63,cs),
(705,63,ls),
(725,62,o),
(746,62,o),
(759,66,cs),
(786,77,o),
(789,99,o),
(782,123,cs),
(775,147,o),
(760,172,o),
(749,188,cs),
(735,209,o),
(720,228,o),
(704,246,cs),
(687,264,o),
(672,283,o),
(658,302,cs),
(630,340,o),
(607,381,o),
(603,437,cs),
(602,452,o),
(601,466,o),
(602,479,cs),
(603,492,o),
(603,505,o),
(604,518,cs),
(605,544,o),
(607,569,o),
(603,601,c),
(572,617,o),
(553,600,o),
(539,573,cs),
(525,546,o),
(517,509,o),
(516,484,cs),
(508,408,o),
(527,345,o),
(556,291,cs),
(584,237,o),
(623,191,o),
(656,154,c),
(629,151,o),
(604,145,o),
(581,138,cs),
(535,123,o),
(493,104,o),
(453,83,cs),
(433,72,o),
(413,62,o),
(392,51,c),
(377,101,ls),
(371,117,o),
(365,134,o),
(359,152,cs),
(347,188,o),
(335,227,o),
(326,275,cs),
(318,312,o),
(312,352,o),
(305,400,cs),
(303,410,o),
(301,421,o),
(300,432,cs),
(294,466,ls),
(290,488,o),
(284,507,o),
(275,516,cs),
(262,529,o),
(244,531,o),
(229,527,cs),
(214,522,o),
(202,510,o),
(199,497,c),
(210,348,o),
(243,212,o),
(278,95,c),
(195,110,o),
(127,132,o),
(80,175,c),
(96,199,o),
(114,229,o),
(126,265,cs),
(138,301,o),
(144,344,o),
(133,392,cs),
(130,403,o),
(126,415,o),
(119,429,cs),
(105,456,o),
(85,481,o),
(62,495,cs),
(39,509,o),
(7,500,o),
(8,480,cs),
(8,460,o),
(22,435,o),
(38,412,cs),
(54,388,o),
(58,372,o),
(56,347,cs),
(54,322,o),
(46,299,o),
(37,279,cs),
(28,259,o),
(18,244,o),
(2,227,cs),
(-7,218,o),
(-12,208,o),
(-15,196,cs),
(-26,159,o),
(-13,136,o),
(3,117,cs),
(27,89,o),
(73,61,o),
(125,40,cs),
(177,19,o),
(235,4,o),
(283,3,cs),
(294,3,o),
(304,4,o),
(313,7,cs),
(321,9,o),
(330,7,o),
(339,0,c),
(336,-11,o),
(334,-20,o),
(332,-29,cs),
(327,-47,o),
(340,-67,o),
(356,-68,cs)
);
}
);
width = 780;
}
);
note = W;
unicode = 87;
},
{
glyphname = X;
lastChange = "2024-06-01 13:54:28 +0000";
layers = (
{
layerId = m01;
shapes = (
{
closed = 1;
nodes = (
(503,-33,o),
(511,-10,o),
(511,17,cs),
(511,44,o),
(504,73,o),
(499,88,cs),
(482,128,o),
(452,165,o),
(420,197,cs),
(387,228,o),
(351,255,o),
(322,278,c),
(335,291,o),
(347,303,o),
(360,315,cs),
(373,326,o),
(385,338,o),
(396,351,cs),
(418,375,o),
(437,404,o),
(453,444,cs),
(456,452,o),
(468,491,o),
(472,527,cs),
(476,563,o),
(473,594,o),
(445,589,cs),
(441,588,o),
(437,585,o),
(433,578,cs),
(425,565,o),
(419,546,o),
(413,528,cs),
(405,506,ls),
(396,483,o),
(386,464,o),
(374,447,cs),
(350,414,o),
(323,388,o),
(292,365,cs),
(277,354,o),
(261,342,o),
(246,329,c),
(189,372,o),
(133,412,o),
(108,483,cs),
(105,493,o),
(102,505,o),
(100,520,c),
(91,559,l),
(83,583,o),
(71,599,o),
(46,583,cs),
(29,572,o),
(27,542,o),
(27,525,cs),
(27,434,o),
(71,360,o),
(122,309,cs),
(127,304,o),
(132,300,o),
(139,295,cs),
(171,268,l),
(174,264,o),
(176,261,o),
(176,259,cs),
(176,258,o),
(175,256,o),
(172,253,cs),
(169,250,o),
(166,246,o),
(162,243,cs),
(142,225,l),
(133,215,o),
(124,203,o),
(115,189,cs),
(97,161,o),
(80,129,o),
(69,97,cs),
(57,64,o),
(54,38,o),
(62,16,cs),
(69,-6,o),
(92,-28,o),
(114,-15,cs),
(136,-2,o),
(151,29,o),
(163,62,cs),
(168,78,o),
(173,90,o),
(176,99,cs),
(195,146,o),
(224,177,o),
(257,205,c),
(322,161,o),
(380,109,o),
(420,32,cs),
(423,25,o),
(427,17,o),
(431,9,cs),
(434,0,o),
(438,-7,o),
(443,-14,cs),
(451,-27,o),
(463,-37,o),
(482,-36,cs)
);
}
);
width = 524;
}
);
note = X;
unicode = 88;
},
{
glyphname = Y;
lastChange = "2024-06-01 13:54:28 +0000";
layers = (
{
layerId = m01;
shapes = (
{
closed = 1;
nodes = (
(309,-104,o),
(323,-62,o),
(320,-22,cs),
(316,22,o),
(300,64,o),
(285,105,cs),
(269,145,o),
(253,184,o),
(252,223,c),
(260,222,o),
(269,220,o),
(278,218,cs),
(287,215,o),
(297,214,o),
(306,213,cs),
(315,213,o),
(326,212,o),
(338,210,cs),
(362,206,o),
(369,207,o),
(381,227,cs),
(392,246,o),
(393,267,o),
(389,285,cs),
(385,303,o),
(379,320,o),
(373,337,cs),
(370,345,o),
(367,354,o),
(366,363,c),
(359,393,o),
(355,423,o),
(353,454,cs),
(351,484,o),
(348,516,o),
(345,549,cs),
(342,586,ls),
(341,598,o),
(339,609,o),
(336,619,cs),
(330,638,o),
(319,650,o),
(298,647,cs),
(275,643,o),
(269,622,o),
(269,597,cs),
(268,572,o),
(272,542,o),
(275,521,cs),
(282,436,o),
(293,352,o),
(309,285,c),
(250,294,o),
(202,307,o),
(166,332,cs),
(130,356,o),
(106,392,o),
(95,451,c),
(92,479,ls),
(91,489,o),
(89,499,o),
(87,509,cs),
(83,529,o),
(78,546,o),
(67,551,c),
(39,568,o),
(26,548,o),
(22,520,cs),
(17,491,o),
(20,454,o),
(23,438,c),
(28,389,o),
(48,349,o),
(74,317,cs),
(100,285,o),
(135,262,o),
(172,245,c),
(183,184,o),
(201,124,o),
(224,64,cs),
(233,35,o),
(241,5,o),
(248,-25,cs),
(254,-55,o),
(265,-84,o),
(281,-112,c)
);
}
);
width = 421;
}
);
note = Y;
unicode = 89;
},
{
glyphname = Z;
lastChange = "2024-06-01 13:54:28 +0000";
layers = (
{
layerId = m01;
shapes = (
{
closed = 1;
nodes = (
(676,-10,o),
(711,5,o),
(731,30,cs),
(744,46,o),
(748,68,o),
(746,88,cs),
(744,108,o),
(734,126,o),
(722,137,c),
(703,106,o),
(682,85,o),
(643,78,c),
(588,74,o),
(523,83,o),
(457,92,cs),
(391,100,o),
(324,109,o),
(267,102,c),
(287,121,o),
(306,142,o),
(323,166,cs),
(358,214,o),
(389,268,o),
(418,324,cs),
(432,352,o),
(446,379,o),
(460,406,cs),
(465,416,o),
(471,427,o),
(479,440,cs),
(486,453,o),
(493,466,o),
(499,480,cs),
(510,507,o),
(516,533,o),
(503,556,c),
(483,567,o),
(465,566,o),
(454,561,cs),
(381,530,o),
(282,505,o),
(181,520,cs),
(174,521,o),
(167,523,o),
(160,526,cs),
(146,531,o),
(113,530,o),
(106,507,cs),
(98,484,o),
(107,453,o),
(120,423,cs),
(133,393,o),
(137,382,o),
(142,362,cs),
(144,351,o),
(147,341,o),
(151,331,cs),
(159,311,o),
(171,294,o),
(188,295,cs),
(213,298,o),
(217,328,o),
(213,361,cs),
(209,393,o),
(197,426,o),
(190,437,c),
(250,429,o),
(321,429,o),
(376,441,c),
(359,408,o),
(342,374,o),
(326,339,cs),
(309,304,o),
(290,272,o),
(269,241,cs),
(250,214,o),
(227,184,o),
(200,157,cs),
(173,130,o),
(144,106,o),
(113,91,c),
(105,89,o),
(97,88,o),
(90,87,cs),
(83,86,o),
(76,83,o),
(69,78,c),
(64,76,o),
(59,73,o),
(54,69,cs),
(39,57,ls),
(28,49,o),
(16,43,o),
(3,43,c),
(3,38,o),
(6,34,o),
(11,31,cs),
(16,28,o),
(22,23,o),
(29,18,cs),
(44,5,o),
(51,-1,o),
(62,-3,cs),
(73,-5,o),
(84,-2,o),
(107,3,cs),
(142,11,o),
(183,15,o),
(229,14,cs),
(321,13,o),
(418,5,o),
(509,-3,cs),
(554,-8,o),
(594,-10,o),
(628,-10,cs)
);
}
);
width = 711;
}
);
note = Z;
unicode = 90;
},
{
glyphname = a;
lastChange = "2024-06-01 13:54:28 +0000";
layers = (
{
layerId = m01;
shapes = (
{
closed = 1;
nodes = (
(203,-27,o),
(213,-24,o),
(222,-19,cs),
(239,-10,o),
(253,2,o),
(265,13,cs),
(271,18,o),
(277,23,o),
(284,26,c),
(292,13,o),
(303,-4,o),
(318,-16,cs),
(333,-28,o),
(350,-34,o),
(373,-25,c),
(375,-16,o),
(375,-8,o),
(373,0,cs),
(369,16,o),
(361,30,o),
(353,46,c),
(348,53,o),
(344,61,o),
(341,69,cs),
(328,102,o),
(321,137,o),
(318,175,cs),
(312,250,o),
(317,329,o),
(327,410,cs),
(332,450,o),
(336,489,o),
(339,528,c),
(331,539,o),
(320,556,o),
(304,552,cs),
(286,547,o),
(267,541,o),
(246,534,cs),
(225,527,o),
(203,520,o),
(180,513,cs),
(135,500,o),
(86,488,o),
(38,488,c),
(33,481,o),
(32,474,o),
(35,467,cs),
(42,452,o),
(58,438,o),
(75,425,cs),
(91,412,o),
(97,400,o),
(105,388,c),
(108,381,o),
(112,376,o),
(116,371,cs),
(124,362,o),
(134,356,o),
(146,359,c),
(157,386,o),
(151,407,o),
(134,436,c),
(161,440,o),
(185,446,o),
(204,455,cs),
(223,464,o),
(244,472,o),
(266,479,c),
(261,452,o),
(257,424,o),
(254,396,cs),
(251,367,o),
(247,338,o),
(244,309,c),
(185,317,o),
(113,305,o),
(61,274,cs),
(8,243,o),
(-27,194,o),
(-11,127,cs),
(-2,87,o),
(24,44,o),
(60,13,cs),
(96,-19,o),
(141,-38,o),
(190,-29,cs)
);
},
{
closed = 1;
nodes = (
(162,48,o),
(134,60,o),
(112,80,cs),
(90,99,o),
(74,124,o),
(71,151,cs),
(66,191,o),
(90,219,o),
(125,236,cs),
(160,252,o),
(205,258,o),
(244,254,c),
(241,194,o),
(246,140,o),
(258,93,c),
(238,70,o),
(217,55,o),
(190,51,cs)
);
}
);
width = 387;
}
);
note = a;
unicode = 97;
},
{
glyphname = b;
lastChange = "2024-06-01 13:54:28 +0000";
layers = (
{
layerId = m01;
shapes = (
{
closed = 1;
nodes = (
(258,-45,o),
(289,-20,o),
(313,20,cs),
(336,59,o),
(354,104,o),
(364,145,cs),
(374,186,o),
(381,223,o),
(381,284,cs),
(381,344,o),
(368,401,o),
(344,441,cs),
(319,480,o),
(267,487,o),
(239,476,cs),
(210,465,o),
(190,444,o),
(174,420,cs),
(166,407,o),
(157,396,o),
(148,387,c),
(145,458,o),
(139,550,o),
(119,628,cs),
(98,706,o),
(61,769,o),
(-3,785,c),
(-27,793,o),
(-52,795,o),
(-70,789,cs),
(-88,783,o),
(-101,770,o),
(-101,749,c),
(-96,746,o),
(-92,745,o),
(-87,745,cs),
(-83,745,o),
(-79,746,o),
(-74,747,cs),
(-66,749,o),
(-55,752,o),
(-39,749,c),
(-9,733,o),
(13,711,o),
(27,682,cs),
(55,624,o),
(63,548,o),
(64,461,cs),
(65,418,o),
(67,374,o),
(70,329,cs),
(71,294,o),
(73,257,o),
(75,220,cs),
(78,144,o),
(88,76,o),
(109,24,cs),
(130,-28,o),
(180,-54,o),
(219,-49,cs)
);
},
{
closed = 1;
nodes = (
(188,47,o),
(174,90,o),
(173,138,cs),
(172,186,o),
(183,241,o),
(200,290,cs),
(217,338,o),
(239,380,o),
(260,407,c),
(263,407,o),
(265,406,o),
(266,405,cs),
(267,404,o),
(269,403,o),
(272,403,c),
(299,343,o),
(303,269,o),
(293,200,cs),
(283,131,o),
(256,66,o),
(223,23,c)
);
}
);
width = 390;
}
);
note = b;
unicode = 98;
},
{
glyphname = c;
lastChange = "2024-06-01 13:54:28 +0000";
layers = (
{
layerId = m01;
shapes = (
{
closed = 1;
nodes = (
(303,-45,o),
(342,-33,o),
(362,-8,cs),
(381,17,o),
(383,57,o),
(363,98,c),
(348,50,o),
(321,39,o),
(293,47,cs),
(265,55,o),
(234,82,o),
(213,110,cs),
(181,147,o),
(153,211,o),
(134,276,cs),
(115,341,o),
(106,409,o),
(111,457,c),
(130,454,o),
(149,451,o),
(167,449,cs),
(185,447,o),
(200,441,o),
(213,431,c),
(209,394,o),
(203,348,o),
(207,309,cs),
(210,269,o),
(222,236,o),
(257,223,c),
(264,363,o),
(289,488,o),
(313,609,c),
(299,623,o),
(287,627,o),
(278,622,cs),
(258,611,o),
(245,580,o),
(234,544,cs),
(229,526,o),
(224,512,o),
(219,501,c),
(168,526,o),
(118,536,o),
(80,520,cs),
(42,504,o),
(17,464,o),
(24,388,cs),
(29,312,o),
(57,216,o),
(97,135,cs),
(137,54,o),
(190,-13,o),
(250,-29,cs)
);
}
);
width = 361;
}
);
note = c;
unicode = 99;
},
{
glyphname = d;
lastChange = "2024-06-01 13:54:28 +0000";
layers = (
{
layerId = m01;
shapes = (
{
closed = 1;
nodes = (
(375,-8,o),
(380,2,o),
(383,13,cs),
(388,35,o),
(386,60,o),
(382,87,cs),
(379,100,o),
(377,114,o),
(375,128,cs),
(368,177,o),
(362,227,o),
(358,280,cs),
(350,385,o),
(347,494,o),
(347,606,cs),
(347,661,o),
(348,716,o),
(350,770,cs),
(351,782,o),
(352,795,o),
(354,810,cs),
(358,838,o),
(358,864,o),
(348,878,cs),
(338,892,o),
(314,886,o),
(307,875,cs),
(299,863,o),
(294,846,o),
(291,828,cs),
(290,819,o),
(288,810,o),
(287,803,cs),
(284,780,o),
(281,756,o),
(280,730,cs),
(277,678,o),
(275,625,o),
(275,574,cs),
(275,502,l),
(256,511,o),
(237,520,o),
(218,529,cs),
(179,545,o),
(124,543,o),
(99,523,cs),
(74,503,o),
(52,476,o),
(35,425,cs),
(18,374,o),
(7,315,o),
(6,253,cs),
(5,191,o),
(14,132,o),
(34,84,cs),
(54,35,o),
(91,-4,o),
(138,-4,cs),
(161,-4,o),
(184,2,o),
(206,13,cs),
(249,35,o),
(286,74,o),
(305,105,c),
(309,78,o),
(314,53,o),
(323,31,cs),
(331,9,o),
(344,-9,o),
(367,-17,c)
);
},
{
closed = 1;
nodes = (
(112,69,o),
(96,106,o),
(89,150,cs),
(81,193,o),
(81,242,o),
(81,273,cs),
(82,317,o),
(82,355,o),
(93,395,cs),
(98,412,o),
(105,433,o),
(114,450,cs),
(123,467,o),
(136,481,o),
(152,485,cs),
(179,489,o),
(203,483,o),
(224,471,cs),
(245,459,o),
(262,442,o),
(277,426,c),
(277,353,o),
(283,287,o),
(292,219,c),
(273,187,o),
(256,159,o),
(232,127,c),
(227,122,o),
(222,115,o),
(216,108,cs),
(209,101,o),
(202,94,o),
(195,88,cs),
(179,75,o),
(161,65,o),
(141,65,c)
);
}
);
width = 420;
}
);
note = d;
unicode = 100;
},
{
glyphname = e;
lastChange = "2024-06-01 13:54:28 +0000";
layers = (
{
layerId = m01;
shapes = (
{
closed = 1;
nodes = (
(316,1,o),
(382,44,o),
(430,101,cs),
(478,158,o),
(508,231,o),
(508,301,cs),
(508,371,o),
(478,437,o),
(406,482,c),
(393,482,l),
(393,470,l),
(396,450,o),
(402,430,o),
(410,411,cs),
(417,391,o),
(423,371,o),
(426,352,cs),
(433,289,o),
(411,227,o),
(375,176,cs),
(339,125,o),
(289,87,o),
(237,78,cs),
(189,71,o),
(143,82,o),
(111,107,cs),
(79,131,o),
(61,172,o),
(68,228,c),
(103,195,o),
(147,181,o),
(189,182,cs),
(231,183,o),
(271,202,o),
(300,231,cs),
(328,260,o),
(345,301,o),
(341,352,cs),
(338,375,o),
(324,406,o),
(301,432,cs),
(277,458,o),
(247,478,o),
(211,482,cs),
(151,486,o),
(98,457,o),
(58,412,cs),
(18,367,o),
(-8,305,o),
(-16,242,cs),
(-24,179,o),
(-13,116,o),
(22,71,cs),
(42,44,o),
(72,23,o),
(111,8,cs),
(150,-7,o),
(195,-14,o),
(244,-7,cs)
);
},
{
closed = 1;
nodes = (
(163,248,o),
(140,253,o),
(121,262,cs),
(101,270,o),
(87,283,o),
(87,299,c),
(84,319,o),
(99,341,o),
(119,361,cs),
(138,380,o),
(163,394,o),
(179,397,cs),
(220,408,o),
(245,395,o),
(257,374,cs),
(269,353,o),
(267,321,o),
(253,296,cs),
(239,271,o),
(214,249,o),
(179,248,cs)
);
}
);
width = 488;
}
);
note = e;
unicode = 101;
},
{
glyphname = f;
lastChange = "2024-06-01 13:54:28 +0000";
layers = (
{
layerId = m01;
shapes = (
{
closed = 1;
nodes = (
(276,-19,o),
(285,10,o),
(286,43,cs),
(288,107,o),
(272,174,o),
(249,235,cs),
(237,266,o),
(227,293,o),
(219,317,c),
(238,320,o),
(256,322,o),
(274,321,cs),
(310,319,o),
(346,312,o),
(380,305,cs),
(397,302,o),
(413,300,o),
(429,299,cs),
(439,299,l),
(443,298,o),
(447,298,o),
(452,299,c),
(460,299,o),
(467,302,o),
(470,310,c),
(467,341,o),
(450,362,o),
(424,376,cs),
(398,390,o),
(363,396,o),
(331,399,cs),
(280,404,o),
(237,400,o),
(193,397,c),
(186,432,o),
(179,470,o),
(180,506,cs),
(180,542,o),
(189,575,o),
(214,598,cs),
(219,603,o),
(230,611,o),
(242,616,cs),
(253,621,o),
(263,625,o),
(271,624,cs),
(278,623,o),
(286,617,o),
(295,608,cs),
(314,588,o),
(330,579,o),
(351,567,cs),
(361,560,o),
(371,557,o),
(382,557,cs),
(398,557,o),
(422,567,o),
(426,582,cs),
(431,602,o),
(420,623,o),
(404,641,cs),
(387,659,o),
(364,673,o),
(347,680,c),
(342,683,o),
(336,684,o),
(329,684,cs),
(322,684,o),
(315,686,o),
(310,689,cs),
(291,700,o),
(274,732,o),
(261,757,cs),
(258,762,o),
(254,768,o),
(251,775,cs),
(248,782,o),
(244,789,o),
(240,796,cs),
(231,809,o),
(220,821,o),
(207,821,cs),
(201,821,o),
(196,818,o),
(193,811,cs),
(186,798,o),
(186,781,o),
(192,763,cs),
(198,745,o),
(206,726,o),
(215,708,cs),
(219,699,o),
(223,690,o),
(226,682,c),
(197,675,o),
(174,662,o),
(155,643,cs),
(117,604,o),
(97,549,o),
(97,485,cs),
(97,452,o),
(102,420,o),
(111,387,c),
(102,382,o),
(90,379,o),
(75,378,cs),
(33,375,ls),
(5,372,o),
(-18,365,o),
(-18,340,cs),
(-19,308,o),
(5,296,o),
(37,295,cs),
(69,294,o),
(108,301,o),
(135,308,c),
(170,227,o),
(198,131,o),
(221,38,cs),
(228,7,o),
(232,-27,o),
(259,-46,c)
);
}
);
width = 509;
}
);
note = f;
unicode = 102;
},
{
glyphname = g;
lastChange = "2024-06-01 13:54:28 +0000";
layers = (
{
layerId = m01;
shapes = (
{
closed = 1;
nodes = (
(274,-344,o),
(338,-313,o),
(387,-268,cs),
(435,-223,o),
(471,-164,o),
(480,-105,cs),
(492,-32,o),
(461,25,o),
(414,48,cs),
(401,54,o),
(387,58,o),
(371,59,cs),
(322,62,ls),
(290,65,o),
(260,70,o),
(245,93,c),
(280,100,o),
(316,124,o),
(347,157,cs),
(378,190,o),
(401,233,o),
(412,277,cs),
(423,321,o),
(419,366,o),
(392,405,cs),
(375,430,o),
(344,442,o),
(312,453,c),
(316,462,o),
(320,471,o),
(325,479,cs),
(333,494,o),
(341,509,o),
(346,529,cs),
(351,549,o),
(351,566,o),
(340,577,cs),
(328,588,o),
(300,587,o),
(287,569,cs),
(274,551,o),
(264,526,o),
(256,503,cs),
(251,491,o),
(246,482,o),
(241,476,c),
(168,473,o),
(101,450,o),
(56,406,cs),
(11,362,o),
(-14,299,o),
(-5,218,cs),
(6,133,o),
(68,85,o),
(164,80,c),
(175,54,o),
(190,35,o),
(208,22,cs),
(243,-4,o),
(294,-8,o),
(327,-10,cs),
(343,-11,o),
(358,-14,o),
(371,-18,cs),
(397,-27,o),
(413,-46,o),
(408,-91,cs),
(401,-138,o),
(371,-184,o),
(330,-219,cs),
(321,-226,o),
(309,-234,o),
(292,-243,cs),
(258,-260,o),
(221,-270,o),
(194,-261,cs),
(166,-253,o),
(161,-194,o),
(181,-156,cs),
(200,-118,o),
(232,-90,o),
(267,-66,cs),
(284,-55,o),
(299,-42,o),
(311,-29,c),
(292,-13,o),
(271,-9,o),
(249,-12,cs),
(227,-15,o),
(205,-24,o),
(189,-35,cs),
(150,-59,o),
(119,-107,o),
(105,-159,cs),
(91,-211,o),
(93,-267,o),
(128,-308,c),
(147,-324,o),
(176,-341,o),
(207,-341,cs)
);
},
{
closed = 1;
nodes = (
(100,162,o),
(71,188,o),
(65,235,cs),
(58,290,o),
(77,337,o),
(110,371,cs),
(142,405,o),
(189,426,o),
(240,433,cs),
(241,433,o),
(241,432,o),
(241,430,c),
(245,414,o),
(265,396,o),
(284,411,c),
(307,392,o),
(336,374,o),
(341,338,cs),
(346,297,o),
(333,258,o),
(310,228,cs),
(287,198,o),
(255,175,o),
(226,166,c),
(223,193,o),
(226,212,o),
(230,241,cs),
(230,245,o),
(231,250,o),
(232,257,cs),
(234,277,ls),
(234,289,o),
(232,301,o),
(223,304,cs),
(210,308,o),
(197,300,o),
(188,288,cs),
(179,275,o),
(172,258,o),
(168,249,c),
(159,217,o),
(156,190,o),
(153,155,c)
);
}
);
width = 475;
}
);
note = g;
unicode = 103;
},
{
glyphname = h;
lastChange = "2024-06-01 13:54:28 +0000";
layers = (
{
layerId = m01;
shapes = (
{
closed = 1;
nodes = (
(379,-42,o),
(387,-30,o),
(389,-13,cs),
(391,3,o),
(387,26,o),
(384,47,cs),
(365,166,o),
(368,299,o),
(387,402,cs),
(390,416,o),
(390,430,o),
(389,443,cs),
(385,470,o),
(372,491,o),
(351,503,cs),
(330,515,o),
(297,510,o),
(270,494,cs),
(243,477,o),
(222,454,o),
(203,428,cs),
(184,402,o),
(173,384,o),
(165,371,cs),
(161,364,o),
(155,359,o),
(148,355,c),
(145,384,o),
(140,424,o),
(133,467,cs),
(125,510,o),
(114,554,o),
(102,590,cs),
(91,621,o),
(80,655,o),
(64,683,cs),
(47,710,o),
(26,731,o),
(-2,736,cs),
(-4,736,o),
(-6,735,o),
(-8,734,cs),
(-11,733,o),
(-13,732,o),
(-14,732,c),
(-8,703,o),
(1,675,o),
(12,650,cs),
(34,599,o),
(47,539,o),
(56,468,cs),
(64,396,o),
(71,322,o),
(78,248,cs),
(81,211,o),
(85,176,o),
(89,143,cs),
(92,123,o),
(100,86,o),
(113,52,cs),
(125,18,o),
(144,-12,o),
(167,-20,c),
(178,-14,o),
(185,-6,o),
(188,4,cs),
(194,23,o),
(190,46,o),
(185,67,cs),
(182,78,o),
(180,87,o),
(179,95,cs),
(178,105,o),
(176,117,o),
(174,130,cs),
(171,143,o),
(169,157,o),
(167,170,cs),
(163,197,o),
(158,223,o),
(161,239,cs),
(165,275,o),
(195,310,o),
(216,341,cs),
(243,380,o),
(270,411,o),
(307,428,c),
(306,402,o),
(305,374,o),
(303,345,cs),
(301,316,o),
(299,286,o),
(298,256,cs),
(294,196,o),
(291,134,o),
(298,81,c),
(299,58,o),
(304,27,o),
(313,1,cs),
(322,-25,o),
(338,-46,o),
(363,-43,cs)
);
}
);
width = 409;
}
);
note = h;
unicode = 104;
},
{
glyphname = i;
lastChange = "2024-06-01 13:54:28 +0000";
layers = (
{
layerId = m01;
shapes = (
{
closed = 1;
nodes = (
(123,-39,o),
(134,-22,o),
(137,-3,cs),
(140,22,o),
(140,49,o),
(136,77,cs),
(131,104,o),
(129,133,o),
(129,163,cs),
(128,196,o),
(127,222,o),
(127,247,cs),
(127,272,o),
(128,296,o),
(129,327,cs),
(130,348,o),
(129,368,o),
(124,381,cs),
(119,393,o),
(108,400,o),
(89,396,cs),
(80,394,o),
(73,389,o),
(68,380,cs),
(59,363,o),
(56,339,o),
(56,313,cs),
(56,275,ls),
(56,195,o),
(54,108,o),
(69,39,cs),
(72,23,o),
(76,3,o),
(84,-13,cs),
(91,-30,o),
(100,-42,o),
(115,-39,c)
);
},
{
closed = 1;
nodes = (
(105,509,o),
(110,525,o),
(114,546,cs),
(117,567,o),
(119,593,o),
(120,613,c),
(124,633,o),
(129,665,o),
(128,689,cs),
(127,713,o),
(117,731,o),
(89,724,cs),
(74,721,o),
(65,704,o),
(59,682,cs),
(53,660,o),
(49,633,o),
(48,610,cs),
(47,589,o),
(48,562,o),
(55,540,cs),
(62,518,o),
(74,502,o),
(94,506,cs)
);
}
);
width = 179;
}
);
note = i;
unicode = 105;
},
{
glyphname = j;
lastChange = "2024-06-01 13:54:28 +0000";
layers = (
{
layerId = m01;
shapes = (
{
closed = 1;
nodes = (
(180,-226,o),
(225,-212,o),
(253,-196,c),
(254,-192,o),
(257,-189,o),
(260,-187,cs),
(263,-185,o),
(267,-182,o),
(270,-179,c),
(277,-168,o),
(282,-156,o),
(283,-142,cs),
(285,-114,o),
(279,-84,o),
(271,-52,cs),
(266,-37,o),
(263,-22,o),
(260,-8,cs),
(234,109,o),
(221,233,o),
(221,366,cs),
(221,377,o),
(222,390,o),
(223,404,cs),
(224,417,o),
(222,430,o),
(217,441,c),
(193,440,o),
(182,419,o),
(175,392,cs),
(168,365,o),
(166,331,o),
(165,306,cs),
(162,266,o),
(161,226,o),
(164,185,cs),
(169,103,o),
(181,25,o),
(194,-43,cs),
(201,-77,o),
(206,-107,o),
(210,-133,c),
(206,-137,o),
(200,-141,o),
(191,-144,cs),
(174,-151,o),
(153,-154,o),
(133,-155,cs),
(113,-156,o),
(91,-157,o),
(81,-143,cs),
(71,-129,o),
(69,-109,o),
(72,-84,cs),
(73,-72,o),
(74,-60,o),
(74,-48,cs),
(74,-15,o),
(70,19,o),
(59,43,c),
(34,23,o),
(10,-22,o),
(1,-69,cs),
(-8,-117,o),
(-5,-167,o),
(23,-196,cs),
(48,-224,o),
(92,-233,o),
(136,-229,cs)
);
},
{
closed = 1;
nodes = (
(215,517,o),
(227,540,o),
(231,551,cs),
(241,579,o),
(247,608,o),
(248,639,cs),
(249,669,o),
(252,700,o),
(255,732,c),
(250,743,o),
(244,751,o),
(238,758,cs),
(226,770,o),
(201,766,o),
(190,746,cs),
(179,725,o),
(175,694,o),
(175,662,cs),
(174,645,o),
(174,630,o),
(173,616,cs),
(172,596,o),
(173,572,o),
(178,552,cs),
(182,532,o),
(191,517,o),
(204,517,cs)
);
}
);
width = 310;
}
);
note = j;
unicode = 106;
},
{
glyphname = k;
lastChange = "2024-06-01 13:54:28 +0000";
layers = (
{
layerId = m01;
shapes = (
{
closed = 1;
nodes = (
(474,-234,o),
(478,-219,o),
(481,-202,cs),
(486,-167,o),
(489,-128,o),
(490,-88,cs),
(490,-48,o),
(493,-6,o),
(500,48,cs),
(507,102,o),
(513,154,o),
(516,198,cs),
(519,242,o),
(514,287,o),
(481,304,cs),
(448,320,o),
(403,318,o),
(356,308,cs),
(333,303,o),
(312,299,o),
(293,296,c),
(317,329,o),
(343,365,o),
(366,404,cs),
(389,443,o),
(406,484,o),
(411,531,c),
(390,534,o),
(376,525,o),
(365,513,cs),
(354,500,o),
(347,483,o),
(340,470,cs),
(289,387,o),
(231,316,o),
(151,259,c),
(108,378,o),
(84,520,o),
(73,675,c),
(73,700,o),
(74,726,o),
(76,752,cs),
(77,778,o),
(76,804,o),
(73,829,cs),
(72,848,o),
(68,862,o),
(61,869,cs),
(54,876,o),
(47,878,o),
(40,876,cs),
(24,871,o),
(9,850,o),
(6,819,cs),
(-2,714,o),
(4,601,o),
(20,496,cs),
(35,391,o),
(61,293,o),
(93,220,c),
(91,216,o),
(88,213,o),
(84,210,cs),
(80,207,o),
(76,203,o),
(73,199,cs),
(65,191,o),
(60,180,o),
(63,163,c),
(74,148,o),
(98,148,o),
(119,153,c),
(130,134,o),
(139,114,o),
(148,94,cs),
(157,73,o),
(166,54,o),
(176,35,cs),
(196,-3,o),
(219,-38,o),
(252,-63,c),
(257,-52,o),
(260,-41,o),
(260,-30,cs),
(260,-7,o),
(253,15,o),
(244,38,cs),
(239,49,o),
(235,60,o),
(231,70,cs),
(224,91,o),
(215,111,o),
(204,130,cs),
(193,149,o),
(185,168,o),
(180,188,c),
(219,201,o),
(260,216,o),
(303,226,cs),
(346,236,o),
(390,243,o),
(437,240,c),
(440,187,o),
(433,126,o),
(426,64,cs),
(418,2,o),
(410,-60,o),
(414,-115,cs),
(417,-170,o),
(432,-216,o),
(468,-247,c)
);
}
);
width = 527;
}
);
note = k;
unicode = 107;
},
{
glyphname = l;
lastChange = "2024-06-01 13:54:28 +0000";
layers = (
{
layerId = m01;
shapes = (
{
closed = 1;
nodes = (
(273,-24,o),
(278,-9,o),
(283,14,cs),
(288,37,o),
(291,62,o),
(291,86,cs),
(291,98,o),
(291,109,o),
(290,118,cs),
(279,175,o),
(253,221,o),
(230,261,c),
(215,230,o),
(210,196,o),
(210,159,cs),
(210,122,o),
(215,83,o),
(222,43,c),
(217,43,o),
(209,43,o),
(198,42,cs),
(187,41,o),
(176,41,o),
(164,42,cs),
(140,43,o),
(116,48,o),
(105,61,c),
(105,115,o),
(108,165,o),
(114,210,cs),
(119,255,o),
(125,299,o),
(130,340,cs),
(140,423,o),
(144,498,o),
(125,585,cs),
(118,612,o),
(111,646,o),
(99,672,cs),
(87,698,o),
(70,717,o),
(49,717,c),
(62,663,o),
(67,609,o),
(65,554,cs),
(60,445,o),
(44,336,o),
(31,232,cs),
(24,179,o),
(23,128,o),
(26,78,cs),
(29,34,o),
(41,1,o),
(66,-14,cs),
(76,-21,o),
(91,-27,o),
(112,-30,cs),
(153,-38,o),
(200,-39,o),
(237,-31,cs)
);
}
);
width = 306;
}
);
note = l;
unicode = 108;
},
{
glyphname = m;
lastChange = "2024-06-01 13:54:28 +0000";
layers = (
{
layerId = m01;
shapes = (
{
closed = 1;
nodes = (
(474,-56,o),
(468,-29,o),
(463,-2,cs),
(458,25,o),
(452,51,o),
(447,83,cs),
(443,110,o),
(440,139,o),
(437,170,cs),
(432,233,o),
(429,300,o),
(429,367,cs),
(429,400,o),
(430,432,o),
(431,462,c),
(434,484,o),
(436,503,o),
(436,518,cs),
(436,533,o),
(429,547,o),
(416,558,c),
(393,557,o),
(374,552,o),
(357,544,cs),
(323,528,o),
(295,505,o),
(272,482,cs),
(260,470,o),
(248,460,o),
(236,452,c),
(237,484,o),
(234,506,o),
(228,519,cs),
(221,532,o),
(213,538,o),
(202,538,cs),
(181,538,o),
(153,516,o),
(127,490,cs),
(101,464,o),
(78,434,o),
(67,421,c),
(67,453,o),
(65,492,o),
(57,521,cs),
(48,549,o),
(31,566,o),
(-1,553,c),
(-5,546,o),
(-8,540,o),
(-9,534,cs),
(-12,522,o),
(-10,509,o),
(-6,496,cs),
(-4,489,o),
(-2,482,o),
(-1,474,cs),
(0,447,o),
(0,418,o),
(0,388,cs),
(-1,357,o),
(-1,327,o),
(-1,296,cs),
(-1,235,o),
(1,175,o),
(12,124,cs),
(23,73,o),
(40,32,o),
(72,9,c),
(80,1,o),
(94,-6,o),
(110,-9,cs),
(126,-13,o),
(143,-13,o),
(158,-2,c),
(155,11,o),
(149,23,o),
(140,32,cs),
(131,41,o),
(122,51,o),
(114,62,c),
(99,89,o),
(86,128,o),
(78,169,cs),
(69,210,o),
(64,253,o),
(67,288,cs),
(72,320,o),
(89,349,o),
(107,374,cs),
(125,399,o),
(146,421,o),
(162,437,c),
(169,341,o),
(173,247,o),
(189,163,cs),
(197,120,o),
(205,77,o),
(220,41,cs),
(235,4,o),
(258,-25,o),
(294,-38,c),
(295,-23,o),
(295,-8,o),
(294,7,cs),
(291,37,o),
(285,68,o),
(278,101,cs),
(269,151,ls),
(265,168,o),
(261,186,o),
(256,205,cs),
(251,223,o),
(246,241,o),
(243,259,cs),
(235,295,o),
(233,329,o),
(241,358,c),
(246,386,o),
(268,410,o),
(293,429,cs),
(317,448,o),
(344,463,o),
(363,474,c),
(363,441,o),
(363,405,o),
(362,366,cs),
(361,327,o),
(360,288,o),
(361,249,cs),
(362,170,o),
(368,93,o),
(385,32,cs),
(402,-29,o),
(431,-75,o),
(479,-91,c)
);
}
);
width = 480;
}
);
note = m;
unicode = 109;
},
{
glyphname = n;
lastChange = "2024-06-01 13:54:28 +0000";
layers = (
{
layerId = m01;
shapes = (
{
closed = 1;
nodes = (
(113,-29,o),
(119,-16,o),
(119,1,cs),
(119,17,o),
(113,36,o),
(109,49,cs),
(93,106,o),
(90,173,o),
(87,232,c),
(112,268,o),
(137,306,o),
(162,345,cs),
(187,384,o),
(214,418,o),
(243,447,c),
(241,412,o),
(239,375,o),
(236,338,cs),
(233,301,o),
(231,264,o),
(231,228,cs),
(230,156,o),
(235,87,o),
(259,31,cs),
(268,6,o),
(290,-20,o),
(319,-28,c),
(330,-12,o),
(335,9,o),
(328,36,c),
(326,55,o),
(322,73,o),
(317,90,cs),
(311,107,o),
(307,127,o),
(304,148,cs),
(299,187,o),
(298,228,o),
(301,271,cs),
(304,313,o),
(306,357,o),
(308,403,cs),
(308,419,o),
(309,436,o),
(312,455,cs),
(316,492,o),
(315,524,o),
(300,544,cs),
(284,563,o),
(252,558,o),
(232,539,cs),
(222,530,o),
(213,522,o),
(206,515,cs),
(181,490,o),
(159,464,o),
(141,436,cs),
(122,408,o),
(103,381,o),
(82,355,c),
(81,374,o),
(80,391,o),
(81,408,cs),
(81,425,o),
(80,444,o),
(77,467,cs),
(76,474,o),
(76,483,o),
(75,492,cs),
(74,511,o),
(71,529,o),
(64,544,cs),
(57,559,o),
(40,566,o),
(32,545,cs),
(23,524,o),
(20,490,o),
(19,458,cs),
(18,441,o),
(18,429,o),
(17,420,cs),
(14,320,o),
(13,218,o),
(24,130,cs),
(31,83,o),
(37,29,o),
(54,0,c),
(61,-17,o),
(80,-30,o),
(93,-30,cs)
);
}
);
width = 351;
}
);
note = n;
unicode = 110;
},
{
glyphname = o;
lastChange = "2024-06-01 13:54:28 +0000";
layers = (
{
layerId = m01;
shapes = (
{
closed = 1;
nodes = (
(196,-45,o),
(246,-31,o),
(289,-3,cs),
(332,24,o),
(365,65,o),
(384,108,cs),
(413,183,o),
(403,262,o),
(366,318,cs),
(329,374,o),
(264,406,o),
(184,389,c),
(176,396,o),
(168,399,o),
(161,399,cs),
(146,398,o),
(133,388,o),
(121,375,cs),
(109,362,o),
(95,348,o),
(78,333,cs),
(69,326,o),
(61,318,o),
(54,310,cs),
(38,294,o),
(25,275,o),
(21,251,c),
(26,250,o),
(30,251,o),
(34,255,cs),
(38,259,o),
(41,261,o),
(44,260,c),
(20,196,o),
(19,129,o),
(38,75,cs),
(57,21,o),
(94,-21,o),
(145,-33,cs)
);
},
{
closed = 1;
nodes = (
(116,45,o),
(94,94,o),
(92,151,cs),
(90,207,o),
(106,272,o),
(126,311,c),
(177,332,o),
(224,331,o),
(260,311,cs),
(296,291,o),
(320,253,o),
(323,202,cs),
(324,161,o),
(308,118,o),
(281,87,cs),
(253,56,o),
(216,36,o),
(173,40,cs)
);
},
{
closed = 1;
nodes = (
(82,407,o),
(97,420,o),
(113,433,cs),
(128,445,o),
(144,458,o),
(165,473,cs),
(176,480,o),
(186,488,o),
(195,496,cs),
(213,512,o),
(225,530,o),
(232,557,c),
(215,563,o),
(200,565,o),
(185,564,cs),
(155,561,o),
(126,548,o),
(102,531,cs),
(77,514,o),
(53,498,o),
(28,476,cs),
(3,454,o),
(0,427,o),
(13,411,cs),
(26,394,o),
(46,392,o),
(64,400,cs)
);
}
);
width = 413;
}
);
note = o;
unicode = 111;
},
{
glyphname = p;
lastChange = "2024-06-01 13:54:28 +0000";
layers = (
{
layerId = m01;
shapes = (
{
closed = 1;
nodes = (
(173,-213,o),
(181,-208,o),
(187,-198,cs),
(198,-179,o),
(202,-147,o),
(202,-110,cs),
(201,-73,o),
(199,-36,o),
(196,-5,cs),
(194,10,o),
(193,22,o),
(193,30,c),
(245,11,o),
(297,17,o),
(334,42,cs),
(371,67,o),
(393,112,o),
(385,172,cs),
(380,201,o),
(373,229,o),
(364,256,cs),
(355,283,o),
(345,315,o),
(335,350,cs),
(330,364,o),
(326,380,o),
(322,398,cs),
(314,434,o),
(305,468,o),
(295,495,cs),
(285,522,o),
(269,531,o),
(246,527,cs),
(223,523,o),
(207,513,o),
(188,490,cs),
(168,467,o),
(151,443,o),
(135,420,cs),
(126,408,o),
(118,398,o),
(111,390,c),
(107,397,o),
(103,406,o),
(99,417,cs),
(90,438,o),
(79,460,o),
(64,473,cs),
(49,486,o),
(20,482,o),
(16,469,cs),
(11,456,o),
(17,436,o),
(27,416,cs),
(32,405,o),
(35,396,o),
(37,387,cs),
(40,374,o),
(45,360,o),
(50,345,cs),
(55,330,o),
(58,318,o),
(58,309,cs),
(58,304,o),
(57,299,o),
(55,295,cs),
(50,286,o),
(54,276,o),
(61,269,cs),
(64,265,o),
(68,259,o),
(71,252,c),
(75,237,o),
(78,220,o),
(79,201,cs),
(82,164,o),
(89,130,o),
(97,94,cs),
(104,58,o),
(109,32,o),
(112,-25,cs),
(115,-82,o),
(121,-142,o),
(134,-182,cs),
(141,-203,o),
(150,-213,o),
(163,-213,cs)
);
},
{
closed = 1;
nodes = (
(224,104,o),
(193,115,o),
(176,123,c),
(175,138,o),
(172,153,o),
(168,167,cs),
(164,180,o),
(161,194,o),
(159,209,cs),
(156,224,o),
(152,239,o),
(147,254,cs),
(136,285,o),
(140,302,o),
(158,322,cs),
(176,342,o),
(193,367,o),
(206,388,cs),
(212,398,o),
(220,407,o),
(229,414,c),
(234,399,o),
(241,380,o),
(248,355,cs),
(255,330,o),
(262,304,o),
(271,277,cs),
(274,265,o),
(278,253,o),
(283,240,cs),
(288,227,o),
(292,214,o),
(296,202,cs),
(303,177,o),
(307,154,o),
(303,135,cs),
(299,108,o),
(276,102,o),
(250,103,cs)
);
}
);
width = 387;
}
);
note = p;
unicode = 112;
},
{
glyphname = q;
lastChange = "2024-06-01 13:54:28 +0000";
layers = (
{
layerId = m01;
shapes = (
{
closed = 1;
nodes = (
(543,-296,o),
(585,-296,o),
(621,-292,cs),
(656,-288,o),
(684,-279,o),
(699,-262,c),
(694,-237,o),
(683,-219,o),
(666,-206,cs),
(631,-182,o),
(582,-174,o),
(526,-174,cs),
(444,-174,l),
(436,-41,o),
(416,74,o),
(399,178,c),
(496,199,o),
(539,248,o),
(546,303,cs),
(553,358,o),
(522,417,o),
(471,461,cs),
(420,504,o),
(350,529,o),
(277,514,cs),
(252,509,o),
(233,502,o),
(222,493,cs),
(199,473,o),
(195,447,o),
(204,417,cs),
(213,387,o),
(228,354,o),
(243,325,cs),
(250,310,o),
(256,297,o),
(259,286,c),
(220,303,o),
(186,335,o),
(162,372,cs),
(138,409,o),
(124,451,o),
(128,488,cs),
(132,525,o),
(152,558,o),
(197,575,c),
(212,584,o),
(228,588,o),
(245,589,cs),
(277,589,o),
(309,583,o),
(339,577,cs),
(354,574,o),
(368,573,o),
(381,575,c),
(346,615,o),
(287,633,o),
(229,633,cs),
(171,633,o),
(112,616,o),
(83,584,cs),
(39,535,o),
(31,474,o),
(47,415,cs),
(63,356,o),
(102,298,o),
(149,254,cs),
(196,209,o),
(251,177,o),
(302,170,c),
(319,117,o),
(336,63,o),
(351,7,cs),
(366,-49,o),
(382,-106,o),
(399,-163,c),
(377,-163,o),
(355,-162,o),
(334,-161,cs),
(313,-160,o),
(294,-161,o),
(278,-163,cs),
(245,-168,o),
(222,-181,o),
(222,-217,cs),
(222,-237,o),
(231,-252,o),
(248,-261,cs),
(282,-281,o),
(337,-288,o),
(404,-291,cs),
(437,-292,o),
(470,-294,o),
(503,-296,cs)
);
},
{
closed = 1;
nodes = (
(355,289,o),
(340,322,o),
(329,355,cs),
(317,388,o),
(302,418,o),
(285,445,c),
(325,450,o),
(366,437,o),
(397,414,cs),
(428,391,o),
(448,359,o),
(448,330,cs),
(448,301,o),
(426,272,o),
(373,257,c)
);
}
);
width = 582;
}
);
note = q;
unicode = 113;
},
{
glyphname = r;
lastChange = "2024-06-01 13:54:28 +0000";
layers = (
{
layerId = m01;
shapes = (
{
closed = 1;
nodes = (
(163,7,o),
(138,85,o),
(129,186,c),
(129,202,o),
(128,218,o),
(127,233,cs),
(123,263,o),
(121,291,o),
(121,316,cs),
(121,341,o),
(125,366,o),
(141,392,cs),
(156,418,o),
(175,442,o),
(195,462,cs),
(219,486,l),
(218,455,o),
(216,423,o),
(214,391,cs),
(211,358,o),
(211,328,o),
(212,299,cs),
(215,242,o),
(230,193,o),
(271,168,c),
(278,236,o),
(285,314,o),
(291,392,cs),
(297,470,o),
(301,549,o),
(301,618,c),
(289,631,o),
(265,647,o),
(252,642,c),
(240,633,o),
(228,621,o),
(215,605,cs),
(189,572,o),
(163,535,o),
(140,500,cs),
(128,483,o),
(118,469,o),
(109,459,c),
(104,474,o),
(100,490,o),
(95,508,cs),
(90,525,o),
(84,541,o),
(77,556,cs),
(61,584,o),
(36,603,o),
(-5,595,c),
(-10,585,o),
(-13,577,o),
(-12,570,c),
(-12,556,o),
(-5,546,o),
(4,536,cs),
(8,531,o),
(11,525,o),
(13,518,c),
(40,457,o),
(45,371,o),
(49,284,cs),
(53,197,o),
(57,111,o),
(79,47,cs),
(101,-17,o),
(141,-57,o),
(220,-49,c)
);
}
);
width = 334;
}
);
note = r;
unicode = 114;
},
{
glyphname = s;
lastChange = "2024-06-01 13:54:28 +0000";
layers = (
{
layerId = m01;
shapes = (
{
closed = 1;
nodes = (
(326,-19,o),
(374,1,o),
(398,40,cs),
(422,79,o),
(405,133,o),
(370,161,cs),
(334,188,o),
(287,209,o),
(236,229,cs),
(210,238,o),
(186,249,o),
(164,261,cs),
(120,284,o),
(86,313,o),
(82,356,c),
(82,393,o),
(100,419,o),
(128,433,cs),
(155,447,o),
(191,449,o),
(227,442,c),
(235,430,o),
(243,416,o),
(250,400,cs),
(257,384,o),
(266,369,o),
(276,356,cs),
(296,328,o),
(323,309,o),
(364,318,c),
(365,332,o),
(363,345,o),
(358,356,cs),
(348,379,o),
(332,401,o),
(316,426,cs),
(299,451,o),
(288,477,o),
(281,513,cs),
(273,548,o),
(265,582,o),
(251,607,cs),
(237,631,o),
(203,631,o),
(196,612,cs),
(189,592,o),
(193,564,o),
(201,537,cs),
(204,523,o),
(206,512,o),
(206,505,c),
(119,516,o),
(59,494,o),
(25,439,cs),
(5,405,o),
(-2,374,o),
(3,345,cs),
(13,288,o),
(51,242,o),
(102,209,cs),
(153,176,o),
(187,159,o),
(216,147,cs),
(231,140,o),
(245,134,o),
(258,127,cs),
(285,114,o),
(307,100,o),
(320,80,c),
(299,56,o),
(261,51,o),
(224,56,cs),
(187,61,o),
(148,76,o),
(127,95,c),
(121,68,o),
(125,46,o),
(139,29,cs),
(166,-7,o),
(215,-23,o),
(271,-21,cs)
);
}
);
width = 418;
}
);
note = s;
unicode = 115;
},
{
glyphname = t;
lastChange = "2024-06-01 13:54:28 +0000";
layers = (
{
layerId = m01;
shapes = (
{
closed = 1;
nodes = (
(567,7,o),
(538,54,o),
(509,101,cs),
(480,148,o),
(449,195,o),
(444,256,cs),
(443,263,o),
(442,271,o),
(443,280,cs),
(443,307,ls),
(443,326,o),
(440,343,o),
(427,354,c),
(399,359,o),
(383,348,o),
(374,330,cs),
(365,312,o),
(362,288,o),
(362,272,cs),
(362,253,o),
(365,233,o),
(372,213,cs),
(384,173,o),
(403,136,o),
(420,106,cs),
(428,91,o),
(434,78,o),
(438,68,c),
(363,77,o),
(310,120,o),
(274,184,cs),
(237,248,o),
(217,333,o),
(212,426,c),
(227,429,o),
(243,433,o),
(260,438,cs),
(295,448,o),
(332,458,o),
(372,463,cs),
(412,468,o),
(443,467,o),
(471,460,cs),
(484,457,o),
(497,455,o),
(510,454,cs),
(534,452,o),
(554,456,o),
(554,487,cs),
(554,507,o),
(540,520,o),
(523,529,cs),
(506,538,o),
(484,542,o),
(471,542,c),
(446,545,o),
(423,545,o),
(400,543,cs),
(354,538,o),
(312,529,o),
(273,521,cs),
(254,516,o),
(235,513,o),
(217,510,c),
(216,523,o),
(216,537,o),
(218,551,cs),
(224,593,ls),
(227,620,o),
(228,646,o),
(217,669,c),
(212,669,o),
(207,670,o),
(204,672,cs),
(200,674,o),
(195,675,o),
(190,675,c),
(194,642,o),
(184,610,o),
(173,579,cs),
(161,547,o),
(148,515,o),
(147,483,c),
(127,480,ls),
(116,478,o),
(107,477,o),
(95,478,cs),
(82,478,o),
(58,481,o),
(34,495,cs),
(21,502,o),
(11,507,o),
(2,510,c),
(-22,474,o),
(-9,444,o),
(23,425,cs),
(54,406,o),
(103,399,o),
(147,410,c),
(147,283,o),
(160,182,o),
(207,109,cs),
(254,36,o),
(333,-10,o),
(468,-26,c),
(473,-29,o),
(480,-32,o),
(489,-36,cs),
(497,-41,o),
(506,-45,o),
(515,-48,cs),
(534,-55,o),
(554,-60,o),
(570,-53,c)
);
}
);
width = 558;
}
);
note = t;
unicode = 116;
},
{
glyphname = u;
lastChange = "2024-06-01 13:54:28 +0000";
layers = (
{
layerId = m01;
shapes = (
{
closed = 1;
nodes = (
(470,-57,o),
(466,-40,o),
(459,-24,cs),
(446,8,o),
(427,38,o),
(408,69,cs),
(398,84,o),
(389,100,o),
(381,117,cs),
(352,181,o),
(336,253,o),
(329,341,cs),
(328,360,o),
(328,380,o),
(329,399,cs),
(330,418,o),
(332,437,o),
(333,455,cs),
(335,490,o),
(335,523,o),
(323,550,c),
(302,560,o),
(286,558,o),
(275,544,cs),
(253,515,o),
(243,459,o),
(243,396,cs),
(243,332,o),
(245,287,o),
(254,244,cs),
(263,201,o),
(275,164,o),
(286,135,cs),
(291,120,o),
(296,108,o),
(299,97,c),
(277,100,o),
(255,103,o),
(233,108,cs),
(188,116,o),
(150,131,o),
(123,155,cs),
(96,178,o),
(88,211,o),
(96,246,cs),
(103,281,o),
(117,317,o),
(131,354,cs),
(138,373,o),
(143,391,o),
(146,410,cs),
(153,447,o),
(148,483,o),
(120,515,c),
(113,504,o),
(107,493,o),
(103,482,cs),
(94,459,o),
(88,438,o),
(83,416,cs),
(80,405,o),
(77,394,o),
(73,384,cs),
(64,363,o),
(53,342,o),
(40,321,cs),
(27,300,o),
(18,280,o),
(12,259,c),
(-5,166,o),
(35,102,o),
(102,64,cs),
(169,26,o),
(263,12,o),
(352,21,c),
(361,12,o),
(369,2,o),
(377,-8,cs),
(385,-18,o),
(394,-27,o),
(403,-36,cs),
(421,-54,o),
(442,-70,o),
(471,-75,c)
);
}
);
width = 437;
}
);
note = u;
unicode = 117;
},
{
glyphname = v;
lastChange = "2024-06-01 13:54:28 +0000";
layers = (
{
layerId = m01;
shapes = (
{
closed = 1;
nodes = (
(245,6,o),
(246,23,o),
(244,38,cs),
(241,53,o),
(240,69,o),
(240,87,c),
(247,171,o),
(276,257,o),
(307,325,c),
(327,377,o),
(351,425,o),
(383,472,cs),
(388,481,o),
(393,490,o),
(400,499,cs),
(406,508,o),
(409,516,o),
(410,523,c),
(409,530,o),
(405,538,o),
(398,547,cs),
(385,564,o),
(364,561,o),
(351,553,cs),
(338,545,o),
(327,533,o),
(319,519,cs),
(314,512,o),
(310,505,o),
(307,500,cs),
(286,465,o),
(264,423,o),
(245,380,cs),
(226,337,o),
(209,294,o),
(197,258,c),
(170,321,ls),
(161,342,o),
(150,365,o),
(137,390,cs),
(121,418,ls),
(114,429,o),
(107,441,o),
(99,452,cs),
(82,475,o),
(61,495,o),
(41,495,cs),
(32,496,o),
(24,494,o),
(18,487,cs),
(6,474,o),
(4,458,o),
(11,446,cs),
(18,434,o),
(28,420,o),
(39,408,cs),
(44,401,o),
(49,395,o),
(52,390,cs),
(87,337,o),
(107,295,o),
(135,232,cs),
(140,220,o),
(146,206,o),
(155,191,cs),
(163,176,o),
(168,162,o),
(170,151,cs),
(171,138,o),
(169,124,o),
(166,109,cs),
(163,94,o),
(162,79,o),
(163,64,c),
(170,21,o),
(186,-14,o),
(241,-14,c)
);
}
);
width = 419;
}
);
note = v;
unicode = 118;
},
{
glyphname = w;
lastChange = "2024-06-01 13:54:28 +0000";
layers = (
{
layerId = m01;
shapes = (
{
closed = 1;
nodes = (
(526,-49,o),
(552,-44,o),
(573,-28,cs),
(593,-13,o),
(584,11,o),
(572,19,cs),
(559,27,o),
(542,31,o),
(523,33,cs),
(513,34,o),
(504,36,o),
(496,39,c),
(524,168,o),
(554,314,o),
(595,435,cs),
(610,478,o),
(622,523,o),
(649,550,c),
(653,556,o),
(659,561,o),
(666,566,cs),
(673,570,o),
(676,577,o),
(676,586,c),
(673,606,o),
(655,608,o),
(636,604,cs),
(616,600,o),
(595,590,o),
(590,586,cs),
(538,537,o),
(513,451,o),
(490,360,cs),
(477,315,o),
(465,270,o),
(455,225,cs),
(425,99,l),
(417,124,o),
(409,151,o),
(402,178,cs),
(394,205,o),
(386,233,o),
(379,260,cs),
(363,315,o),
(347,369,o),
(331,417,c),
(339,420,o),
(349,421,o),
(360,422,cs),
(392,425,ls),
(412,428,o),
(429,434,o),
(430,451,cs),
(430,462,o),
(418,477,o),
(407,484,cs),
(387,495,o),
(343,498,o),
(299,498,cs),
(255,497,o),
(212,492,o),
(196,484,cs),
(173,473,o),
(169,452,o),
(176,434,cs),
(183,416,o),
(202,401,o),
(230,406,c),
(219,375,o),
(208,342,o),
(199,309,cs),
(189,276,o),
(179,243,o),
(168,211,c),
(155,259,o),
(139,298,o),
(115,333,cs),
(112,338,o),
(107,346,o),
(100,356,cs),
(86,375,o),
(68,395,o),
(49,407,cs),
(29,418,o),
(9,410,o),
(6,399,cs),
(3,388,o),
(8,375,o),
(14,364,cs),
(17,358,o),
(19,354,o),
(20,351,c),
(67,287,o),
(90,217,o),
(115,133,cs),
(117,126,o),
(119,118,o),
(122,109,cs),
(127,92,o),
(133,74,o),
(141,60,cs),
(148,46,o),
(163,29,o),
(176,31,cs),
(188,33,o),
(197,47,o),
(204,67,cs),
(207,77,o),
(211,86,o),
(214,94,cs),
(227,133,o),
(237,172,o),
(246,210,cs),
(255,248,o),
(265,284,o),
(278,318,c),
(289,275,o),
(302,231,o),
(316,186,cs),
(330,141,o),
(343,97,o),
(355,55,c),
(316,62,o),
(295,45,o),
(295,16,cs),
(295,4,o),
(299,-5,o),
(307,-12,cs),
(323,-25,o),
(348,-31,o),
(379,-33,cs),
(410,-35,o),
(446,-40,o),
(486,-44,cs)
);
}
);
width = 657;
}
);
note = w;
unicode = 119;
},
{
glyphname = x;
lastChange = "2024-06-01 13:54:28 +0000";
layers = (
{
layerId = m01;
shapes = (
{
closed = 1;
nodes = (
(139,-71,o),
(149,-60,o),
(144,-46,cs),
(141,-39,o),
(140,-30,o),
(140,-19,cs),
(140,10,o),
(157,47,o),
(169,74,cs),
(181,103,o),
(199,126,o),
(216,149,c),
(231,121,o),
(259,92,o),
(295,68,cs),
(331,44,o),
(374,26,o),
(415,23,cs),
(455,19,o),
(494,29,o),
(525,62,c),
(517,73,o),
(507,82,o),
(496,88,cs),
(472,99,o),
(444,105,o),
(416,110,cs),
(402,112,o),
(389,115,o),
(377,120,cs),
(322,143,o),
(296,176,o),
(272,223,c),
(318,276,ls),
(334,293,o),
(350,311,o),
(366,330,cs),
(397,366,o),
(427,405,o),
(447,449,cs),
(454,462,o),
(462,480,o),
(467,498,cs),
(471,516,o),
(471,535,o),
(460,552,c),
(450,555,o),
(441,554,o),
(434,550,cs),
(418,542,o),
(406,527,o),
(397,511,cs),
(384,488,ls),
(363,456,o),
(339,422,o),
(313,392,cs),
(287,362,o),
(259,335,o),
(235,315,c),
(228,329,o),
(221,344,o),
(215,361,cs),
(194,409,ls),
(179,441,o),
(163,471,o),
(140,491,cs),
(137,494,o),
(132,497,o),
(125,501,cs),
(109,509,o),
(91,513,o),
(77,509,cs),
(63,505,o),
(62,487,o),
(67,479,cs),
(72,470,o),
(80,461,o),
(87,454,cs),
(90,450,o),
(93,447,o),
(94,445,cs),
(102,432,o),
(109,416,o),
(116,399,cs),
(129,364,o),
(142,327,o),
(154,290,cs),
(160,271,o),
(166,254,o),
(172,237,c),
(146,198,ls),
(137,185,o),
(128,171,o),
(119,158,cs),
(102,131,o),
(86,102,o),
(77,69,c),
(74,73,o),
(70,78,o),
(63,85,cs),
(50,97,o),
(33,106,o),
(19,105,cs),
(5,104,o),
(-2,87,o),
(6,70,cs),
(14,53,o),
(27,35,o),
(39,20,cs),
(51,5,o),
(54,0,o),
(62,-19,cs),
(69,-38,o),
(78,-56,o),
(90,-69,cs),
(102,-82,o),
(117,-81,o),
(128,-76,cs)
);
}
);
width = 528;
}
);
note = x;
unicode = 120;
},
{
glyphname = y;
lastChange = "2024-06-01 13:54:28 +0000";
layers = (
{
layerId = m01;
shapes = (
{
closed = 1;
nodes = (
(268,-97,o),
(303,-88,o),
(331,-73,cs),
(344,-66,o),
(358,-59,o),
(372,-52,cs),
(400,-40,o),
(427,-31,o),
(462,-36,cs),
(466,-37,o),
(470,-38,o),
(475,-40,cs),
(488,-46,ls),
(497,-50,o),
(506,-54,o),
(517,-51,cs),
(527,-48,o),
(533,-40,o),
(536,-26,cs),
(541,1,o),
(534,12,o),
(523,40,cs),
(512,67,o),
(497,99,o),
(481,128,cs),
(465,156,o),
(446,180,o),
(421,213,cs),
(408,229,o),
(396,245,o),
(385,262,cs),
(334,341,o),
(311,417,o),
(292,518,c),
(289,546,ls),
(288,557,o),
(284,565,o),
(279,570,cs),
(264,583,o),
(251,581,o),
(240,571,cs),
(229,561,o),
(223,544,o),
(222,535,cs),
(220,521,o),
(219,508,o),
(220,497,cs),
(220,473,o),
(224,451,o),
(229,430,cs),
(232,419,o),
(234,408,o),
(237,395,cs),
(244,352,o),
(257,312,o),
(274,277,c),
(249,252,o),
(218,234,o),
(179,222,c),
(172,278,o),
(162,339,o),
(146,395,cs),
(138,420,o),
(130,449,o),
(117,471,cs),
(104,493,o),
(83,508,o),
(54,505,c),
(49,499,o),
(46,493,o),
(46,487,cs),
(46,475,o),
(50,463,o),
(57,450,cs),
(66,430,ls),
(71,417,o),
(75,404,o),
(78,390,cs),
(83,361,o),
(90,329,o),
(92,296,cs),
(94,263,o),
(96,230,o),
(100,201,cs),
(104,172,o),
(115,143,o),
(136,135,cs),
(156,126,o),
(182,128,o),
(208,137,cs),
(234,145,o),
(261,158,o),
(285,175,cs),
(297,184,o),
(309,192,o),
(322,199,c),
(328,189,o),
(335,179,o),
(344,169,cs),
(352,159,o),
(361,148,o),
(370,136,cs),
(389,111,o),
(409,79,o),
(428,32,c),
(375,27,o),
(316,10,o),
(276,-3,cs),
(236,-14,o),
(186,-31,o),
(138,-28,cs),
(87,-25,o),
(45,4,o),
(30,37,cs),
(25,46,o),
(21,55,o),
(18,66,cs),
(15,76,o),
(11,85,o),
(7,94,cs),
(-1,111,o),
(-11,123,o),
(-30,122,cs),
(-35,122,o),
(-48,120,o),
(-53,115,cs),
(-64,106,o),
(-70,93,o),
(-70,77,cs),
(-70,61,o),
(-67,45,o),
(-61,29,cs),
(-50,-3,o),
(-31,-34,o),
(-23,-43,cs),
(-6,-62,o),
(16,-79,o),
(44,-92,cs),
(100,-119,o),
(154,-123,o),
(211,-110,cs)
);
}
);
width = 544;
}
);
note = y;
unicode = 121;
},
{
glyphname = z;
lastChange = "2024-06-01 13:54:28 +0000";
layers = (
{
layerId = m01;
shapes = (
{
closed = 1;
nodes = (
(418,-49,o),
(430,-48,o),
(443,-47,cs),
(468,-45,o),
(491,-40,o),
(507,-31,cs),
(522,-22,o),
(529,-6,o),
(524,9,cs),
(521,16,o),
(520,25,o),
(520,34,cs),
(519,41,o),
(519,49,o),
(521,57,cs),
(522,65,o),
(523,72,o),
(523,78,cs),
(522,97,o),
(517,115,o),
(510,132,cs),
(503,149,o),
(497,167,o),
(493,184,c),
(486,203,o),
(480,218,o),
(472,229,cs),
(464,240,o),
(452,245,o),
(433,244,cs),
(390,240,o),
(383,205,o),
(388,165,cs),
(393,125,o),
(411,81,o),
(420,62,c),
(379,67,o),
(342,74,o),
(307,84,cs),
(272,94,o),
(235,102,o),
(198,109,c),
(211,132,o),
(228,155,o),
(247,178,cs),
(266,201,o),
(284,224,o),
(303,249,cs),
(339,298,o),
(369,352,o),
(376,416,cs),
(383,504,o),
(349,551,o),
(254,542,cs),
(235,540,o),
(217,536,o),
(198,529,cs),
(161,516,o),
(121,504,o),
(85,497,cs),
(49,489,o),
(17,479,o),
(-2,460,cs),
(-21,440,o),
(-15,401,o),
(5,395,cs),
(24,389,o),
(57,395,o),
(98,409,cs),
(119,416,o),
(141,422,o),
(164,428,cs),
(210,440,o),
(259,450,o),
(303,442,c),
(286,399,o),
(269,361,o),
(252,330,cs),
(216,267,o),
(180,218,o),
(141,177,cs),
(122,156,o),
(102,135,o),
(83,112,cs),
(68,96,o),
(63,87,o),
(60,78,cs),
(56,69,o),
(58,58,o),
(59,41,cs),
(59,18,o),
(81,-5,o),
(110,-8,cs),
(117,-8,o),
(124,-7,o),
(130,-4,cs),
(136,-1,o),
(145,0,o),
(156,0,cs),
(200,4,o),
(238,-6,o),
(278,-18,cs),
(317,-30,o),
(357,-44,o),
(405,-48,cs)
);
}
);
width = 520;
}
);
note = z;
unicode = 122;
},
{
glyphname = zero;
lastChange = "2024-06-01 13:54:28 +0000";
layers = (
{
layerId = m01;
shapes = (
{
closed = 1;
nodes = (
(106,-52,o),
(116,-41,o),
(124,-28,cs),
(140,-2,o),
(151,29,o),
(163,59,cs),
(169,74,o),
(176,87,o),
(185,100,c),
(249,84,o),
(303,100,o),
(343,134,cs),
(383,168,o),
(410,219,o),
(416,271,cs),
(422,323,o),
(407,377,o),
(368,416,c),
(363,420,o),
(358,424,o),
(353,427,cs),
(347,430,o),
(342,435,o),
(338,442,c),
(341,450,o),
(345,458,o),
(352,467,cs),
(365,483,o),
(379,502,o),
(391,519,cs),
(402,536,o),
(410,560,o),
(394,576,cs),
(378,592,o),
(346,584,o),
(329,563,cs),
(312,542,o),
(298,514,o),
(285,489,cs),
(278,476,o),
(272,467,o),
(265,460,c),
(208,461,o),
(153,448,o),
(110,424,cs),
(67,400,o),
(37,364,o),
(29,320,c),
(41,328,o),
(51,333,o),
(66,336,c),
(45,300,o),
(44,257,o),
(55,218,cs),
(66,179,o),
(88,144,o),
(113,127,c),
(110,114,o),
(107,99,o),
(102,84,cs),
(93,53,o),
(84,20,o),
(84,-12,cs),
(84,-29,o),
(87,-45,o),
(93,-61,c)
);
},
{
closed = 1;
nodes = (
(100,220,o),
(96,276,o),
(115,323,cs),
(134,370,o),
(177,406,o),
(234,399,c),
(199,328,o),
(166,263,o),
(139,187,c)
);
},
{
closed = 1;
nodes = (
(235,237,o),
(267,311,o),
(306,382,c),
(339,362,o),
(355,326,o),
(356,289,cs),
(356,252,o),
(343,213,o),
(317,186,cs),
(291,159,o),
(252,145,o),
(204,157,c)
);
}
);
width = 442;
}
);
note = zero;
unicode = 48;
},
{
glyphname = one;
lastChange = "2024-06-01 13:54:28 +0000";
layers = (
{
layerId = m01;
shapes = (
{
closed = 1;
nodes = (
(345,16,o),
(358,20,o),
(361,31,cs),
(364,44,o),
(354,56,o),
(347,64,cs),
(339,72,o),
(330,79,o),
(320,84,cs),
(300,95,o),
(276,102,o),
(251,107,cs),
(238,109,o),
(226,112,o),
(214,115,c),
(187,198,o),
(177,318,o),
(184,442,cs),
(184,459,o),
(188,481,o),
(192,501,cs),
(195,529,ls),
(196,546,o),
(189,563,o),
(174,563,cs),
(167,563,o),
(160,560,o),
(153,555,cs),
(139,543,o),
(127,525,o),
(130,509,c),
(118,500,o),
(105,489,o),
(92,477,cs),
(79,464,o),
(64,455,o),
(49,450,cs),
(35,447,ls),
(30,446,o),
(26,446,o),
(23,445,cs),
(15,443,o),
(10,439,o),
(10,431,cs),
(9,423,o),
(12,417,o),
(21,414,cs),
(37,407,o),
(51,407,o),
(65,412,cs),
(79,416,o),
(92,424,o),
(104,432,cs),
(109,436,o),
(115,439,o),
(120,442,c),
(115,387,o),
(114,330,o),
(118,274,cs),
(122,218,o),
(131,164,o),
(147,119,c),
(131,118,o),
(115,118,o),
(98,120,cs),
(65,123,o),
(37,123,o),
(20,113,cs),
(3,103,o),
(5,69,o),
(18,60,cs),
(30,51,o),
(51,48,o),
(75,49,cs),
(86,50,o),
(97,50,o),
(108,50,cs),
(154,50,ls),
(185,49,o),
(217,45,o),
(241,36,cs),
(252,31,o),
(266,27,o),
(281,23,cs),
(294,19,o),
(313,16,o),
(329,16,cs)
);
}
);
width = 379;
}
);
note = one;
unicode = 49;
},
{
glyphname = two;
lastChange = "2024-06-01 13:54:28 +0000";
layers = (
{
layerId = m01;
shapes = (
{
closed = 1;
nodes = (
(366,21,o),
(367,34,o),
(364,49,cs),
(360,64,o),
(354,78,o),
(349,93,cs),
(344,107,o),
(339,122,o),
(335,137,cs),
(326,168,o),
(325,195,o),
(327,220,cs),
(328,233,o),
(328,244,o),
(327,255,cs),
(326,275,o),
(317,288,o),
(292,287,cs),
(263,286,o),
(255,255,o),
(255,219,cs),
(255,182,o),
(262,140,o),
(266,119,c),
(243,120,o),
(221,120,o),
(201,119,cs),
(181,118,o),
(161,116,o),
(140,115,c),
(159,148,o),
(180,188,o),
(199,232,cs),
(218,276,o),
(232,325,o),
(239,374,cs),
(244,422,o),
(242,475,o),
(228,515,cs),
(214,555,o),
(186,583,o),
(145,586,cs),
(98,589,o),
(63,562,o),
(40,522,cs),
(17,482,o),
(7,430,o),
(11,382,cs),
(11,377,o),
(11,369,o),
(12,360,cs),
(13,340,o),
(19,321,o),
(29,310,cs),
(39,298,o),
(53,303,o),
(56,325,cs),
(59,347,o),
(57,375,o),
(57,401,cs),
(56,414,o),
(57,423,o),
(58,429,cs),
(59,450,o),
(69,479,o),
(84,501,cs),
(99,523,o),
(117,537,o),
(140,533,cs),
(153,532,o),
(163,518,o),
(169,501,cs),
(175,484,o),
(177,461,o),
(177,441,cs),
(177,406,o),
(173,373,o),
(164,342,cs),
(147,281,o),
(120,226,o),
(92,175,cs),
(78,150,o),
(66,124,o),
(55,99,c),
(32,95,o),
(19,87,o),
(19,66,c),
(16,43,o),
(27,34,o),
(43,31,cs),
(58,28,o),
(79,32,o),
(98,36,cs),
(139,44,o),
(177,48,o),
(226,51,cs),
(237,52,o),
(249,53,o),
(262,53,cs),
(286,53,o),
(299,48,o),
(306,38,cs),
(309,33,o),
(313,28,o),
(317,24,cs),
(325,15,o),
(334,7,o),
(357,10,c)
);
}
);
width = 359;
}
);
note = two;
unicode = 50;
},
{
glyphname = three;
lastChange = "2024-06-01 13:54:28 +0000";
layers = (
{
layerId = m01;
shapes = (
{
closed = 1;
nodes = (
(218,-10,o),
(250,9,o),
(275,25,cs),
(304,42,o),
(336,64,o),
(361,92,cs),
(386,120,o),
(406,152,o),
(410,192,cs),
(417,259,o),
(391,301,o),
(351,321,cs),
(310,341,o),
(254,337,o),
(201,312,c),
(224,377,o),
(242,434,o),
(274,494,c),
(278,505,o),
(284,515,o),
(291,525,cs),
(298,535,o),
(301,545,o),
(301,554,c),
(298,578,o),
(282,584,o),
(261,584,cs),
(250,584,o),
(239,583,o),
(227,581,cs),
(215,578,o),
(204,577,o),
(195,577,cs),
(172,576,o),
(147,576,o),
(121,578,cs),
(95,580,o),
(73,580,o),
(56,577,cs),
(32,574,o),
(20,562,o),
(20,548,cs),
(19,534,o),
(29,519,o),
(46,512,c),
(49,501,o),
(53,488,o),
(60,475,cs),
(67,462,o),
(72,447,o),
(75,432,cs),
(76,427,o),
(76,421,o),
(76,416,cs),
(76,404,o),
(77,394,o),
(82,387,cs),
(86,379,o),
(100,377,o),
(107,385,cs),
(114,393,o),
(118,407,o),
(119,423,cs),
(120,438,o),
(117,459,o),
(108,478,cs),
(103,487,o),
(101,496,o),
(101,503,c),
(116,502,o),
(133,503,o),
(150,504,cs),
(167,505,o),
(182,504,o),
(195,502,c),
(180,470,o),
(165,435,o),
(154,397,cs),
(143,359,o),
(136,316,o),
(139,269,c),
(123,251,ls),
(117,244,o),
(112,237,o),
(107,230,cs),
(97,214,o),
(90,196,o),
(93,173,cs),
(96,153,o),
(107,138,o),
(127,142,c),
(134,145,o),
(139,150,o),
(140,157,cs),
(141,164,o),
(143,171,o),
(146,178,cs),
(155,199,o),
(181,221,o),
(212,237,cs),
(243,253,o),
(279,262,o),
(314,261,c),
(327,254,o),
(335,244,o),
(337,230,cs),
(341,202,o),
(337,179,o),
(323,159,cs),
(309,139,o),
(288,123,o),
(267,108,cs),
(246,93,o),
(231,85,o),
(211,74,cs),
(200,69,o),
(190,63,o),
(181,57,cs),
(161,44,o),
(146,30,o),
(146,15,cs),
(146,-4,o),
(166,-14,o),
(195,-11,cs)
);
}
);
width = 442;
}
);
note = three;
unicode = 51;
},
{
glyphname = four;
lastChange = "2024-06-01 13:54:28 +0000";
layers = (
{
layerId = m01;
shapes = (
{
closed = 1;
nodes = (
(283,-22,o),
(292,-1,o),
(295,26,cs),
(302,78,o),
(298,140,o),
(291,203,cs),
(288,234,o),
(287,263,o),
(288,289,c),
(299,291,o),
(312,293,o),
(326,294,cs),
(339,295,o),
(352,297,o),
(364,300,cs),
(387,305,o),
(405,315,o),
(404,336,cs),
(404,357,o),
(385,366,o),
(361,370,cs),
(336,374,o),
(305,372,o),
(284,371,c),
(284,399,o),
(284,425,o),
(285,448,cs),
(286,471,o),
(285,495,o),
(284,518,cs),
(284,524,o),
(284,534,o),
(285,547,cs),
(286,560,o),
(286,573,o),
(286,588,cs),
(286,603,o),
(285,617,o),
(284,631,cs),
(281,658,o),
(274,669,o),
(261,674,cs),
(248,679,o),
(233,679,o),
(220,672,cs),
(207,665,o),
(202,653,o),
(199,631,cs),
(196,609,o),
(196,582,o),
(196,555,cs),
(196,542,o),
(196,529,o),
(195,516,cs),
(195,460,o),
(195,403,o),
(198,363,c),
(182,361,o),
(164,358,o),
(145,353,cs),
(126,348,o),
(109,344,o),
(96,343,c),
(103,366,o),
(113,403,o),
(113,436,cs),
(114,448,o),
(116,464,o),
(114,477,cs),
(112,489,o),
(106,500,o),
(93,504,c),
(86,489,o),
(82,473,o),
(79,456,cs),
(76,439,o),
(72,422,o),
(65,406,cs),
(60,390,o),
(55,374,o),
(51,359,cs),
(46,343,o),
(39,329,o),
(30,316,cs),
(27,311,o),
(24,307,o),
(20,303,cs),
(12,295,o),
(4,287,o),
(-2,277,cs),
(-8,267,o),
(-9,241,o),
(8,237,cs),
(25,232,o),
(51,239,o),
(76,250,cs),
(88,255,o),
(98,259,o),
(106,260,c),
(141,271,o),
(172,276,o),
(203,279,c),
(206,256,o),
(208,232,o),
(209,208,cs),
(210,183,o),
(213,158,o),
(216,133,cs),
(219,116,o),
(221,99,o),
(224,82,cs),
(226,65,o),
(229,48,o),
(232,33,cs),
(239,2,o),
(249,-24,o),
(268,-37,c)
);
}
);
width = 448;
}
);
note = four;
unicode = 52;
},
{
glyphname = five;
layers = (
{
layerId = m01;
shapes = (
{
closed = 1;
nodes = (
(484,544,o),
(445,545,o),
(416,541,cs),
(376,534,o),
(329,521,o),
(286,504,cs),
(276,500,o),
(266,495,o),
(256,490,cs),
(245,484,o),
(235,479,o),
(224,474,cs),
(202,465,o),
(179,458,o),
(158,462,cs),
(154,463,o),
(150,465,o),
(145,468,cs),
(135,474,o),
(124,484,o),
(116,493,cs),
(107,502,o),
(103,507,o),
(100,520,cs),
(98,527,o),
(95,533,o),
(92,540,cs),
(85,553,o),
(75,564,o),
(58,561,cs),
(39,558,o),
(23,526,o),
(23,498,cs),
(24,482,o),
(32,470,o),
(40,459,cs),
(48,448,o),
(56,437,o),
(60,424,cs),
(69,392,o),
(65,356,o),
(63,328,cs),
(62,314,o),
(62,302,o),
(63,292,cs),
(66,272,o),
(95,266,o),
(108,282,c),
(99,269,o),
(93,254,o),
(93,239,c),
(106,238,o),
(117,241,o),
(126,249,cs),
(135,257,o),
(145,264,o),
(156,271,cs),
(185,287,o),
(233,299,o),
(273,295,cs),
(312,291,o),
(344,270,o),
(343,222,cs),
(343,186,o),
(328,152,o),
(305,125,cs),
(281,98,o),
(248,79,o),
(215,74,c),
(207,102,o),
(217,123,o),
(226,143,cs),
(235,163,o),
(245,182,o),
(240,206,c),
(204,218,o),
(176,201,o),
(157,173,cs),
(138,144,o),
(130,103,o),
(134,67,cs),
(138,31,o),
(155,0,o),
(187,-11,c),
(210,-11,o),
(244,-11,o),
(261,-6,cs),
(302,7,o),
(342,38,o),
(371,78,cs),
(399,118,o),
(417,167,o),
(416,216,cs),
(416,260,o),
(394,308,o),
(355,331,cs),
(327,348,o),
(289,354,o),
(252,351,cs),
(215,348,o),
(178,337,o),
(151,321,cs),
(137,312,o),
(122,300,o),
(111,286,c),
(121,301,o),
(125,324,o),
(125,349,cs),
(125,382,l),
(152,375,o),
(175,371,o),
(200,376,cs),
(235,384,o),
(274,403,o),
(314,420,cs),
(334,429,o),
(355,437,o),
(376,444,cs),
(418,458,o),
(453,459,o),
(481,455,cs),
(494,453,o),
(507,452,o),
(518,451,cs),
(540,450,o),
(554,453,o),
(557,476,cs),
(562,505,o),
(542,524,o),
(513,534,cs)
);
}
);
width = 580;
}
);
note = five;
unicode = 53;
},
{
glyphname = six;
lastChange = "2024-06-01 13:54:28 +0000";
layers = (
{
layerId = m01;
shapes = (
{
closed = 1;
nodes = (
(262,-17,o),
(315,11,o),
(354,53,cs),
(393,95,o),
(415,150,o),
(410,213,cs),
(407,264,o),
(381,318,o),
(338,341,cs),
(286,370,o),
(236,354,o),
(198,318,cs),
(160,281,o),
(135,225,o),
(138,178,cs),
(139,163,o),
(145,144,o),
(157,130,cs),
(168,116,o),
(186,107,o),
(210,112,c),
(223,121,o),
(226,140,o),
(226,161,cs),
(226,182,o),
(225,206,o),
(232,225,cs),
(241,245,o),
(264,271,o),
(287,270,c),
(312,266,o),
(320,240,o),
(323,213,cs),
(327,178,o),
(316,147,o),
(300,123,cs),
(283,98,o),
(258,80,o),
(234,71,cs),
(202,59,o),
(167,59,o),
(136,69,cs),
(105,79,o),
(81,97,o),
(72,124,c),
(65,155,o),
(71,195,o),
(82,222,cs),
(102,266,o),
(141,312,o),
(173,345,cs),
(189,362,o),
(208,383,o),
(224,405,cs),
(240,427,o),
(252,451,o),
(255,479,cs),
(259,508,o),
(252,544,o),
(240,570,cs),
(227,596,o),
(209,612,o),
(189,607,c),
(176,587,o),
(180,571,o),
(187,553,cs),
(194,535,o),
(202,514,o),
(198,489,cs),
(194,466,o),
(180,445,o),
(163,426,cs),
(146,406,o),
(124,388,o),
(108,375,c),
(65,334,o),
(17,283,o),
(-4,220,cs),
(-29,144,o),
(-12,81,o),
(29,38,cs),
(70,-5,o),
(134,-27,o),
(205,-22,cs)
);
}
);
width = 407;
}
);
note = six;
unicode = 54;
},
{
glyphname = seven;
lastChange = "2024-06-01 13:54:28 +0000";
layers = (
{
layerId = m01;
shapes = (
{
closed = 1;
nodes = (
(193,-38,o),
(200,-26,o),
(202,-12,cs),
(204,2,o),
(203,17,o),
(200,29,c),
(199,39,o),
(196,51,o),
(193,64,cs),
(190,77,o),
(187,91,o),
(186,105,cs),
(184,134,o),
(186,161,o),
(192,185,cs),
(203,232,o),
(224,273,o),
(249,310,cs),
(261,328,o),
(273,347,o),
(284,366,cs),
(306,405,o),
(324,444,o),
(328,495,cs),
(331,518,o),
(331,546,o),
(312,557,cs),
(296,568,o),
(282,564,o),
(272,553,cs),
(262,542,o),
(255,525,o),
(254,512,c),
(231,509,o),
(208,507,o),
(186,504,cs),
(164,501,o),
(140,501,o),
(114,503,cs),
(108,504,o),
(100,505,o),
(90,507,cs),
(69,510,o),
(48,512,o),
(29,509,cs),
(10,505,o),
(5,493,o),
(6,482,cs),
(6,471,o),
(10,459,o),
(14,447,cs),
(16,441,o),
(18,435,o),
(19,430,cs),
(22,422,o),
(25,413,o),
(28,403,cs),
(32,382,o),
(34,362,o),
(35,335,cs),
(35,322,o),
(36,309,o),
(37,297,cs),
(39,272,o),
(43,250,o),
(58,249,c),
(71,246,o),
(82,258,o),
(90,272,cs),
(97,286,o),
(102,303,o),
(103,318,cs),
(106,341,o),
(105,362,o),
(101,381,cs),
(97,400,o),
(94,417,o),
(93,430,c),
(104,429,o),
(115,428,o),
(127,428,cs),
(151,428,o),
(176,429,o),
(198,430,cs),
(226,430,l),
(213,405,o),
(199,380,o),
(184,357,cs),
(169,334,o),
(155,309,o),
(142,283,cs),
(117,230,o),
(100,168,o),
(108,84,cs),
(109,65,o),
(118,33,o),
(131,6,cs),
(143,-21,o),
(161,-43,o),
(181,-39,cs)
);
}
);
width = 324;
}
);
note = seven;
unicode = 55;
},
{
glyphname = eight;
lastChange = "2024-06-01 13:54:28 +0000";
layers = (
{
layerId = m01;
shapes = (
{
closed = 1;
nodes = (
(285,-15,o),
(333,4,o),
(372,32,cs),
(411,60,o),
(439,99,o),
(443,144,cs),
(448,196,o),
(433,233,o),
(403,259,cs),
(373,285,o),
(329,300,o),
(284,308,c),
(295,319,o),
(306,331,o),
(315,344,cs),
(333,370,o),
(329,409,o),
(312,428,cs),
(295,447,o),
(266,455,o),
(233,459,cs),
(216,460,o),
(200,462,o),
(184,464,c),
(181,475,o),
(179,487,o),
(179,500,cs),
(179,512,o),
(175,524,o),
(168,535,cs),
(160,547,o),
(147,552,o),
(133,551,cs),
(119,550,o),
(105,542,o),
(101,527,cs),
(98,515,o),
(102,502,o),
(107,490,cs),
(111,478,o),
(116,465,o),
(116,452,c),
(93,443,o),
(70,431,o),
(51,413,cs),
(32,395,o),
(19,372,o),
(20,341,cs),
(24,298,o),
(62,273,o),
(105,264,c),
(97,255,o),
(88,246,o),
(79,239,cs),
(69,231,o),
(62,221,o),
(58,208,cs),
(57,204,o),
(56,200,o),
(57,196,c),
(57,187,o),
(54,173,o),
(50,159,cs),
(48,152,o),
(46,144,o),
(45,137,cs),
(42,81,o),
(61,40,o),
(96,14,cs),
(131,-12,o),
(181,-24,o),
(237,-19,cs)
);
},
{
closed = 1;
nodes = (
(202,41,o),
(169,43,o),
(145,56,cs),
(128,67,o),
(116,86,o),
(112,107,cs),
(107,128,o),
(109,152,o),
(120,175,cs),
(139,210,o),
(182,239,o),
(239,246,cs),
(274,250,o),
(314,243,o),
(343,227,cs),
(371,210,o),
(389,182,o),
(378,142,cs),
(371,117,o),
(347,92,o),
(320,75,cs),
(299,63,o),
(267,51,o),
(235,46,cs)
);
},
{
closed = 1;
nodes = (
(76,331,o),
(75,353,o),
(80,364,cs),
(85,375,o),
(95,382,o),
(105,390,cs),
(110,393,o),
(113,397,o),
(116,402,c),
(126,399,o),
(138,398,o),
(152,400,cs),
(166,401,o),
(180,403,o),
(195,405,cs),
(224,408,o),
(254,407,o),
(270,387,c),
(269,377,o),
(264,368,o),
(255,360,cs),
(238,344,o),
(211,332,o),
(182,325,cs),
(153,318,o),
(126,317,o),
(101,324,cs)
);
}
);
width = 476;
}
);
note = eight;
unicode = 56;
},
{
glyphname = nine;
lastChange = "2024-06-01 13:54:28 +0000";
layers = (
{
layerId = m01;
shapes = (
{
closed = 1;
nodes = (
(161,-8,o),
(213,10,o),
(242,25,cs),
(283,45,o),
(323,74,o),
(347,103,cs),
(377,137,o),
(397,176,o),
(407,219,cs),
(427,306,o),
(412,392,o),
(367,461,cs),
(322,529,o),
(263,551,o),
(202,547,cs),
(155,543,o),
(110,526,o),
(77,496,cs),
(44,466,o),
(22,423,o),
(26,368,cs),
(31,317,o),
(65,289,o),
(109,279,cs),
(152,269,o),
(203,276,o),
(240,299,cs),
(277,322,o),
(302,359,o),
(291,407,c),
(276,405,o),
(265,400,o),
(256,392,cs),
(247,384,o),
(237,377,o),
(225,371,cs),
(210,363,o),
(186,350,o),
(163,345,cs),
(139,340,o),
(115,341,o),
(102,358,cs),
(94,370,o),
(94,390,o),
(98,408,cs),
(101,426,o),
(109,441,o),
(117,449,cs),
(126,458,o),
(146,467,o),
(167,472,cs),
(187,477,o),
(209,478,o),
(225,477,c),
(266,469,o),
(296,434,o),
(308,409,c),
(333,370,o),
(345,310,o),
(333,250,cs),
(324,203,o),
(294,162,o),
(255,130,cs),
(216,97,o),
(167,75,o),
(122,67,cs),
(114,66,o),
(107,65,o),
(100,65,cs),
(80,65,ls),
(66,65,o),
(51,64,o),
(34,57,c),
(35,5,o),
(72,-9,o),
(117,-8,cs)
);
}
);
width = 455;
}
);
note = nine;
unicode = 57;
},
{
glyphname = asterisk;
lastChange = "2024-06-01 13:54:28 +0000";
layers = (
{
layerId = m01;
shapes = (
{
closed = 1;
nodes = (
(240,-37,o),
(245,-36,o),
(249,-33,cs),
(256,-29,o),
(261,-20,o),
(265,-11,cs),
(266,-7,o),
(268,-3,o),
(270,0,cs),
(295,47,o),
(317,99,o),
(337,146,c),
(359,139,o),
(380,135,o),
(401,132,cs),
(442,127,o),
(474,107,o),
(501,76,cs),
(514,60,o),
(528,46,o),
(543,33,cs),
(567,15,ls),
(585,2,o),
(605,-9,o),
(626,-15,cs),
(647,-21,o),
(664,-16,o),
(676,1,cs),
(688,18,o),
(685,39,o),
(675,54,cs),
(665,69,o),
(650,82,o),
(634,94,cs),
(617,105,o),
(597,119,o),
(570,132,cs),
(557,138,o),
(544,144,o),
(533,151,c),
(509,163,o),
(489,178,o),
(477,202,c),
(534,213,o),
(601,229,o),
(666,217,c),
(678,226,o),
(680,240,o),
(677,252,cs),
(673,263,o),
(665,273,o),
(657,277,c),
(644,286,o),
(628,290,o),
(608,291,cs),
(568,292,o),
(523,286,o),
(482,278,cs),
(461,273,o),
(444,270,o),
(430,269,c),
(428,277,o),
(425,285,o),
(421,292,cs),
(413,306,o),
(405,321,o),
(398,337,cs),
(391,352,o),
(391,372,o),
(396,401,cs),
(398,415,o),
(400,429,o),
(401,444,cs),
(404,473,o),
(406,506,o),
(403,535,cs),
(402,551,o),
(400,572,o),
(394,592,cs),
(388,611,o),
(378,625,o),
(361,628,cs),
(337,632,o),
(324,619,o),
(317,600,cs),
(309,581,o),
(307,556,o),
(306,535,cs),
(301,475,o),
(308,422,o),
(317,373,cs),
(320,361,o),
(325,349,o),
(330,337,cs),
(340,313,o),
(341,294,o),
(332,274,cs),
(327,263,o),
(324,254,o),
(323,246,c),
(286,230,o),
(227,233,o),
(170,235,cs),
(113,237,o),
(56,237,o),
(21,217,cs),
(8,209,o),
(-12,189,o),
(-5,164,cs),
(-2,153,o),
(10,145,o),
(23,140,cs),
(36,135,o),
(50,132,o),
(61,131,cs),
(83,129,o),
(104,129,o),
(125,132,cs),
(165,137,o),
(204,144,o),
(241,151,cs),
(259,154,o),
(278,156,o),
(297,155,c),
(292,140,o),
(286,124,o),
(281,108,cs),
(275,91,o),
(268,75,o),
(261,60,cs),
(252,38,l),
(248,31,o),
(245,23,o),
(242,15,cs),
(236,-1,o),
(231,-19,o),
(235,-36,c)
);
}
);
width = 711;
}
);
note = asterisk;
unicode = 42;
},
{
glyphname = comma;
lastChange = "2024-06-01 13:54:28 +0000";
layers = (
{
layerId = m01;
shapes = (
{
closed = 1;
nodes = (
(157,-118,o),
(185,-101,o),
(206,-78,cs),
(227,-55,o),
(241,-25,o),
(244,7,cs),
(248,39,o),
(240,77,o),
(226,113,cs),
(212,149,o),
(191,181,o),
(174,201,c),
(170,208,o),
(161,219,o),
(149,228,cs),
(137,236,o),
(123,244,o),
(111,244,cs),
(78,247,o),
(54,218,o),
(58,183,c),
(61,172,o),
(68,164,o),
(79,157,cs),
(100,143,o),
(111,127,o),
(124,108,cs),
(136,89,o),
(145,68,o),
(149,45,cs),
(153,21,o),
(148,-5,o),
(128,-19,cs),
(107,-33,o),
(78,-43,o),
(46,-48,cs),
(1,-57,l),
(6,-85,o),
(26,-104,o),
(50,-115,cs),
(74,-126,o),
(103,-128,o),
(128,-123,cs)
);
}
);
width = 833;
}
);
note = comma;
unicode = 44;
},
{
glyphname = exclam;
lastChange = "2024-06-01 13:54:28 +0000";
layers = (
{
layerId = m01;
shapes = (
{
closed = 1;
nodes = (
(167,-74,o),
(193,-62,o),
(213,-44,cs),
(233,-26,o),
(247,-3,o),
(250,21,cs),
(254,62,o),
(226,86,o),
(197,88,cs),
(168,90,o),
(139,71,o),
(143,28,c),
(146,28,o),
(149,29,o),
(154,31,cs),
(162,35,o),
(173,39,o),
(185,39,cs),
(190,39,o),
(195,37,o),
(199,34,c),
(199,2,o),
(177,-26,o),
(138,-23,c),
(110,-4,o),
(109,34,o),
(122,68,cs),
(134,102,o),
(159,133,o),
(182,141,cs),
(198,146,o),
(210,145,o),
(221,142,cs),
(232,139,o),
(242,136,o),
(253,139,c),
(253,160,o),
(235,171,o),
(214,175,cs),
(193,179,o),
(166,176,o),
(153,169,cs),
(133,160,o),
(111,138,o),
(95,110,cs),
(78,82,o),
(65,47,o),
(68,15,cs),
(71,-36,o),
(100,-67,o),
(140,-71,cs)
);
},
{
closed = 1;
nodes = (
(145,234,o),
(147,262,o),
(147,291,cs),
(147,319,o),
(146,347,o),
(143,375,cs),
(138,431,o),
(129,488,o),
(121,540,cs),
(120,545,o),
(119,553,o),
(118,564,cs),
(117,574,o),
(115,585,o),
(114,596,cs),
(110,618,o),
(105,639,o),
(100,644,cs),
(92,652,o),
(81,655,o),
(71,653,cs),
(61,651,o),
(52,644,o),
(49,635,cs),
(44,622,o),
(50,593,o),
(54,572,cs),
(56,551,o),
(59,533,o),
(63,516,c),
(75,433,ls),
(78,403,o),
(83,374,o),
(88,346,cs),
(99,289,o),
(114,238,o),
(141,207,c)
);
}
);
width = 283;
}
);
note = exclam;
unicode = 33;
},
{
glyphname = period;
lastChange = "2024-06-01 13:54:28 +0000";
layers = (
{
layerId = m01;
shapes = (
{
closed = 1;
nodes = (
(228,-82,o),
(265,-65,o),
(292,-39,cs),
(319,-13,o),
(334,23,o),
(334,67,cs),
(335,111,o),
(321,156,o),
(296,192,cs),
(271,227,o),
(234,252,o),
(190,256,cs),
(155,260,o),
(119,251,o),
(91,232,cs),
(63,213,o),
(41,186,o),
(37,150,cs),
(36,146,o),
(37,144,o),
(38,144,c),
(39,143,o),
(40,143,o),
(41,144,cs),
(42,145,o),
(44,145,o),
(45,145,cs),
(46,145,o),
(47,143,o),
(46,140,cs),
(26,77,o),
(31,20,o),
(56,-21,cs),
(81,-62,o),
(127,-86,o),
(187,-83,cs)
);
},
{
closed = 1;
nodes = (
(117,-5,o),
(90,24,o),
(89,67,cs),
(89,92,o),
(95,121,o),
(105,145,cs),
(115,168,o),
(130,185,o),
(150,188,cs),
(187,195,o),
(227,168,o),
(249,130,cs),
(271,92,o),
(276,44,o),
(247,11,cs),
(220,-21,o),
(181,-29,o),
(149,-17,cs)
);
},
{
closed = 1;
nodes = (
(209,44,o),
(220,64,o),
(219,82,cs),
(218,100,o),
(205,116,o),
(180,112,cs),
(157,109,o),
(149,93,o),
(151,76,cs),
(153,59,o),
(166,43,o),
(186,43,cs)
);
}
);
width = 347;
}
);
note = period;
unicode = 46;
},
{
glyphname = question;
lastChange = "2024-06-01 13:54:28 +0000";
layers = (
{
layerId = m01;
shapes = (
{
closed = 1;
nodes = (
(122,209,o),
(134,210,o),
(146,219,cs),
(157,228,o),
(168,241,o),
(179,254,cs),
(184,260,o),
(189,265,o),
(193,269,cs),
(221,298,o),
(253,332,o),
(280,369,cs),
(307,406,o),
(328,447,o),
(332,494,cs),
(337,551,o),
(321,599,o),
(290,631,cs),
(259,663,o),
(215,678,o),
(163,673,cs),
(115,669,o),
(75,648,o),
(47,616,cs),
(19,583,o),
(3,539,o),
(3,487,cs),
(3,481,o),
(4,473,o),
(5,463,cs),
(8,443,o),
(13,425,o),
(24,417,cs),
(35,409,o),
(54,424,o),
(51,435,cs),
(49,440,o),
(48,447,o),
(48,455,cs),
(47,478,o),
(48,499,o),
(52,517,cs),
(59,553,o),
(71,570,o),
(89,587,cs),
(107,604,o),
(132,618,o),
(163,623,cs),
(194,628,o),
(226,620,o),
(243,603,cs),
(260,586,o),
(270,561,o),
(273,533,cs),
(276,504,o),
(268,470,o),
(248,437,cs),
(227,404,o),
(202,373,o),
(175,345,cs),
(161,331,o),
(148,318,o),
(136,305,cs),
(117,288,o),
(91,264,o),
(95,240,c),
(95,231,o),
(99,224,o),
(107,219,cs)
);
},
{
closed = 1;
nodes = (
(233,-64,o),
(265,-36,o),
(283,-3,cs),
(301,29,o),
(303,66,o),
(270,91,cs),
(250,104,o),
(222,106,o),
(201,97,cs),
(180,88,o),
(166,68,o),
(174,40,c),
(187,36,o),
(199,44,o),
(209,51,cs),
(219,58,o),
(229,63,o),
(241,54,cs),
(249,47,o),
(250,38,o),
(247,29,cs),
(244,20,o),
(238,9,o),
(233,4,cs),
(226,-3,o),
(206,-19,o),
(191,-23,cs),
(152,-30,o),
(129,-8,o),
(125,21,cs),
(121,50,o),
(130,83,o),
(146,109,cs),
(162,135,o),
(183,154,o),
(202,161,c),
(209,161,l),
(212,160,o),
(215,160,o),
(218,160,cs),
(224,160,o),
(229,163,o),
(232,172,c),
(233,184,o),
(224,190,o),
(212,192,cs),
(200,194,o),
(186,192,o),
(182,191,cs),
(149,182,o),
(121,157,o),
(102,126,cs),
(83,94,o),
(72,56,o),
(75,21,c),
(75,-8,o),
(91,-37,o),
(115,-56,cs),
(139,-75,o),
(173,-84,o),
(210,-72,cs)
);
}
);
width = 352;
}
);
note = question;
unicode = 63;
},
{
glyphname = dollar;
lastChange = "2024-06-01 13:54:28 +0000";
layers = (
{
layerId = m01;
shapes = (
{
closed = 1;
nodes = (
(280,-94,o),
(287,-21,o),
(287,50,c),
(323,61,o),
(365,80,o),
(399,108,cs),
(433,136,o),
(457,172,o),
(457,220,c),
(460,244,o),
(450,275,o),
(434,294,cs),
(417,314,o),
(389,321,o),
(358,321,cs),
(327,321,o),
(293,314,o),
(268,307,c),
(267,336,o),
(264,365,o),
(259,393,cs),
(254,421,o),
(249,447,o),
(246,472,c),
(269,465,o),
(280,456,o),
(293,441,c),
(300,436,o),
(307,429,o),
(313,420,cs),
(319,411,o),
(327,407,o),
(338,407,c),
(345,422,o),
(345,437,o),
(340,453,cs),
(328,484,o),
(309,505,o),
(278,514,cs),
(262,519,o),
(246,523,o),
(231,528,c),
(218,579,ls),
(213,597,o),
(208,615,o),
(202,634,cs),
(190,670,o),
(175,705,o),
(158,729,cs),
(149,741,o),
(130,751,o),
(114,751,cs),
(105,751,o),
(98,749,o),
(91,744,cs),
(78,735,o),
(78,711,o),
(85,695,cs),
(92,679,o),
(101,663,o),
(110,647,cs),
(115,639,o),
(118,631,o),
(121,623,cs),
(130,604,o),
(136,587,o),
(140,571,cs),
(144,554,o),
(149,536,o),
(154,517,c),
(117,501,o),
(80,477,o),
(52,445,cs),
(24,412,o),
(6,369,o),
(6,316,cs),
(7,271,o),
(31,239,o),
(67,221,cs),
(103,203,o),
(151,200,o),
(202,213,c),
(203,196,o),
(206,180,o),
(210,164,cs),
(213,147,o),
(214,132,o),
(212,118,c),
(203,119,o),
(196,123,o),
(191,128,cs),
(182,139,o),
(176,155,o),
(173,172,cs),
(167,195,l),
(148,191,o),
(132,173,o),
(124,151,cs),
(116,129,o),
(116,102,o),
(129,79,cs),
(148,50,o),
(183,43,o),
(222,35,c),
(229,-33,o),
(231,-104,o),
(259,-153,c)
);
},
{
closed = 1;
nodes = (
(102,277,o),
(82,284,o),
(75,300,cs),
(64,327,o),
(76,363,o),
(95,395,cs),
(114,426,o),
(140,452,o),
(163,460,c),
(172,434,o),
(179,406,o),
(182,376,cs),
(185,345,o),
(188,315,o),
(193,285,c),
(174,278,o),
(149,275,o),
(126,276,cs)
);
},
{
closed = 1;
nodes = (
(284,167,o),
(284,202,o),
(277,234,c),
(285,236,o),
(293,238,o),
(302,241,cs),
(310,244,o),
(319,246,o),
(328,248,cs),
(346,252,o),
(363,253,o),
(379,248,c),
(390,216,o),
(378,191,o),
(358,172,cs),
(338,152,o),
(309,139,o),
(284,130,c)
);
}
);
width = 476;
}
);
note = dollar;
unicode = 36;
},
{
glyphname = Euro;
lastChange = "2024-06-01 13:54:28 +0000";
layers = (
{
layerId = m01;
shapes = (
{
closed = 1;
nodes = (
(425,-88,o),
(426,-85,o),
(427,-80,cs),
(428,-76,o),
(430,-71,o),
(431,-66,cs),
(434,-55,o),
(436,-45,o),
(435,-38,cs),
(435,-31,o),
(432,-24,o),
(427,-16,cs),
(422,-9,o),
(418,-2,o),
(415,3,c),
(407,31,o),
(405,66,o),
(402,101,cs),
(401,110,o),
(401,120,o),
(401,130,cs),
(400,150,o),
(397,168,o),
(393,181,cs),
(388,194,o),
(377,204,o),
(362,203,cs),
(347,202,o),
(331,195,o),
(328,168,cs),
(325,141,o),
(331,109,o),
(337,78,cs),
(340,63,o),
(341,50,o),
(340,41,c),
(269,74,o),
(204,111,o),
(116,126,c),
(123,133,o),
(131,140,o),
(140,146,cs),
(156,158,o),
(170,171,o),
(175,184,cs),
(180,197,o),
(189,199,o),
(202,196,cs),
(208,195,o),
(213,194,o),
(216,194,cs),
(239,195,o),
(263,200,o),
(280,211,cs),
(297,222,o),
(306,237,o),
(301,261,c),
(290,263,o),
(278,263,o),
(266,261,cs),
(253,259,o),
(241,257,o),
(228,256,cs),
(203,253,o),
(179,255,o),
(163,274,c),
(171,277,o),
(180,280,o),
(189,282,cs),
(198,283,o),
(207,285,o),
(216,287,cs),
(233,291,o),
(247,297,o),
(254,312,c),
(249,332,o),
(230,340,o),
(208,342,cs),
(186,344,o),
(161,337,o),
(146,332,c),
(153,367,o),
(177,391,o),
(206,400,cs),
(235,409,o),
(269,404,o),
(294,383,cs),
(299,378,o),
(304,373,o),
(309,367,cs),
(317,355,o),
(327,343,o),
(339,338,cs),
(351,333,o),
(373,337,o),
(376,348,cs),
(379,359,o),
(372,372,o),
(363,385,cs),
(358,391,o),
(355,396,o),
(352,401,cs),
(344,417,o),
(337,437,o),
(332,460,c),
(329,492,ls),
(328,503,o),
(327,512,o),
(325,521,cs),
(321,538,o),
(311,550,o),
(291,546,cs),
(274,543,o),
(269,528,o),
(269,509,cs),
(269,499,o),
(270,489,o),
(271,478,cs),
(272,467,o),
(273,458,o),
(272,450,c),
(223,466,o),
(177,455,o),
(144,429,cs),
(111,403,o),
(88,363,o),
(84,323,cs),
(80,283,o),
(94,243,o),
(134,216,c),
(114,193,o),
(94,174,o),
(63,155,cs),
(58,152,o),
(52,148,o),
(44,144,cs),
(36,140,o),
(28,135,o),
(20,130,cs),
(4,119,o),
(-9,106,o),
(-8,93,cs),
(-7,81,o),
(3,76,o),
(15,73,cs),
(26,70,o),
(40,70,o),
(49,70,cs),
(110,70,o),
(171,47,o),
(224,23,cs),
(277,2,o),
(335,-25,o),
(370,-53,cs),
(375,-57,o),
(379,-61,o),
(383,-65,cs),
(387,-70,o),
(391,-74,o),
(395,-78,cs),
(403,-86,o),
(413,-92,o),
(425,-91,c)
);
}
);
width = 442;
}
);
note = Euro;
unicode = 8364;
},
{
glyphname = at;
lastChange = "2024-06-01 13:54:28 +0000";
layers = (
{
layerId = m01;
shapes = (
{
closed = 1;
nodes = (
(234,-153,o),
(252,-150,o),
(271,-131,c),
(216,-115,o),
(172,-74,o),
(140,-21,cs),
(108,31,o),
(89,97,o),
(86,161,cs),
(82,224,o),
(95,286,o),
(126,334,cs),
(146,365,o),
(173,383,o),
(226,376,cs),
(258,373,o),
(311,360,o),
(359,337,cs),
(365,334,o),
(374,331,o),
(385,326,cs),
(396,321,o),
(408,315,o),
(419,308,cs),
(441,295,o),
(460,279,o),
(461,266,cs),
(464,251,o),
(454,217,o),
(436,181,cs),
(418,145,o),
(390,109,o),
(359,94,c),
(346,122,o),
(346,156,o),
(346,185,cs),
(346,200,o),
(345,213,o),
(343,224,cs),
(339,247,o),
(323,254,o),
(311,253,cs),
(299,252,o),
(279,257,o),
(264,262,cs),
(256,265,o),
(248,266,o),
(241,266,cs),
(225,266,o),
(211,261,o),
(199,250,cs),
(175,228,o),
(159,192,o),
(154,153,cs),
(149,113,o),
(154,76,o),
(170,49,cs),
(186,22,o),
(219,19,o),
(236,24,cs),
(253,29,o),
(267,40,o),
(279,52,cs),
(285,58,o),
(292,64,o),
(299,69,c),
(304,61,o),
(309,53,o),
(314,44,cs),
(319,35,o),
(324,28,o),
(331,21,cs),
(343,8,o),
(358,-1,o),
(381,2,cs),
(397,3,o),
(420,28,o),
(442,61,cs),
(464,94,o),
(486,135,o),
(503,172,cs),
(519,208,o),
(532,239,o),
(533,251,cs),
(537,272,o),
(535,291,o),
(526,307,cs),
(509,339,o),
(476,364,o),
(440,382,cs),
(388,407,ls),
(337,431,o),
(280,451,o),
(224,454,cs),
(149,459,o),
(98,431,o),
(66,384,cs),
(33,337,o),
(19,272,o),
(16,204,cs),
(13,136,o),
(27,61,o),
(54,-2,cs),
(81,-66,o),
(119,-116,o),
(170,-136,cs),
(182,-141,o),
(198,-149,o),
(216,-151,cs)
);
},
{
closed = 1;
nodes = (
(218,114,o),
(216,147,o),
(221,172,cs),
(225,197,o),
(238,215,o),
(266,206,c),
(279,150,o),
(261,113,o),
(221,94,c)
);
}
);
width = 573;
}
);
note = at;
unicode = 64;
},
{
glyphname = alt1;
lastChange = "2024-06-01 13:54:28 +0000";
layers = (
{
layerId = m01;
shapes = (
{
closed = 1;
nodes = (
(191,-51,o),
(195,-29,o),
(196,0,cs),
(196,28,o),
(194,60,o),
(191,92,cs),
(189,108,o),
(187,123,o),
(186,137,cs),
(185,150,o),
(183,163,o),
(181,178,cs),
(179,192,o),
(177,206,o),
(176,219,c),
(167,267,ls),
(164,282,o),
(163,295,o),
(166,304,cs),
(167,308,o),
(169,312,o),
(173,317,cs),
(180,325,o),
(189,334,o),
(198,343,cs),
(203,347,o),
(206,351,o),
(208,354,cs),
(223,374,o),
(231,380,o),
(251,399,c),
(248,331,ls),
(247,308,o),
(247,285,o),
(248,264,cs),
(250,221,o),
(256,181,o),
(276,152,c),
(300,171,o),
(313,199,o),
(322,235,cs),
(330,270,o),
(333,312,o),
(336,359,cs),
(337,372,o),
(338,386,o),
(340,403,cs),
(341,419,o),
(343,436,o),
(344,453,cs),
(346,487,o),
(346,520,o),
(338,541,cs),
(331,558,o),
(301,572,o),
(278,563,cs),
(250,551,o),
(228,519,o),
(206,487,cs),
(184,455,o),
(164,423,o),
(141,411,c),
(137,418,o),
(133,430,o),
(130,445,cs),
(127,460,o),
(123,476,o),
(118,491,cs),
(108,521,o),
(92,545,o),
(64,538,cs),
(52,535,o),
(46,527,o),
(45,516,cs),
(44,504,o),
(46,492,o),
(49,483,c),
(64,415,o),
(76,348,o),
(86,280,cs),
(96,212,o),
(102,142,o),
(109,65,cs),
(112,25,ls),
(114,-5,o),
(119,-35,o),
(128,-55,cs),
(137,-75,o),
(161,-82,o),
(176,-66,cs)
);
}
);
width = 434;
}
);
note = alt1;
},
{
glyphname = alt2;
lastChange = "2024-06-01 13:54:28 +0000";
layers = (
{
layerId = m01;
shapes = (
{
closed = 1;
nodes = (
(351,-16,o),
(364,-16,o),
(377,-14,cs),
(403,-11,o),
(426,-2,o),
(439,14,cs),
(452,29,o),
(452,54,o),
(434,66,cs),
(416,77,o),
(391,84,o),
(365,89,cs),
(352,92,o),
(340,95,o),
(331,100,cs),
(308,111,o),
(291,129,o),
(282,153,cs),
(262,201,o),
(259,265,o),
(263,334,cs),
(265,369,o),
(266,403,o),
(266,436,c),
(286,441,o),
(306,445,o),
(326,446,cs),
(345,447,o),
(368,450,o),
(393,455,cs),
(409,458,o),
(432,464,o),
(452,473,cs),
(472,481,o),
(488,492,o),
(488,508,cs),
(488,516,o),
(480,525,o),
(472,533,cs),
(463,540,o),
(453,547,o),
(448,548,c),
(424,557,o),
(386,549,o),
(350,542,cs),
(314,534,o),
(278,529,o),
(257,545,cs),
(229,566,o),
(216,607,o),
(204,644,cs),
(192,680,o),
(180,713,o),
(152,718,cs),
(121,723,o),
(90,705,o),
(93,684,c),
(93,679,o),
(95,675,o),
(98,672,cs),
(104,665,o),
(113,659,o),
(122,654,cs),
(126,651,o),
(130,648,o),
(133,644,cs),
(156,616,o),
(157,576,o),
(164,529,c),
(144,518,o),
(111,515,o),
(77,514,cs),
(27,511,ls),
(-6,508,o),
(-30,500,o),
(-41,481,cs),
(-53,461,o),
(-45,419,o),
(-12,409,cs),
(21,399,o),
(66,401,o),
(109,409,cs),
(130,412,o),
(148,414,o),
(161,415,c),
(146,318,o),
(150,215,o),
(178,135,cs),
(205,55,o),
(256,-4,o),
(340,-15,cs)
);
}
);
width = 552;
}
);
note = alt2;
},
{
glyphname = alt3;
lastChange = "2024-06-01 13:54:28 +0000";
layers = (
{
layerId = m01;
shapes = (
{
closed = 1;
nodes = (
(429,-243,o),
(435,-226,o),
(436,-207,cs),
(437,-188,o),
(439,-168,o),
(441,-147,cs),
(448,-74,o),
(452,7,o),
(452,91,cs),
(452,110,o),
(453,130,o),
(455,150,cs),
(456,170,o),
(456,188,o),
(454,204,cs),
(451,233,o),
(433,247,o),
(409,252,cs),
(385,257,o),
(356,255,o),
(328,254,cs),
(285,251,o),
(251,248,o),
(216,241,c),
(272,304,o),
(326,377,o),
(351,476,cs),
(352,481,o),
(353,488,o),
(356,499,cs),
(361,519,o),
(365,543,o),
(362,560,cs),
(358,576,o),
(344,578,o),
(333,564,cs),
(322,550,o),
(314,530,o),
(307,511,cs),
(298,489,ls),
(255,394,o),
(199,309,o),
(131,256,c),
(122,288,o),
(115,321,o),
(111,356,cs),
(102,425,o),
(99,499,o),
(99,576,cs),
(99,693,ls),
(99,703,o),
(99,715,o),
(100,730,cs),
(100,745,o),
(99,759,o),
(98,773,cs),
(94,801,o),
(86,823,o),
(69,823,cs),
(61,823,o),
(55,819,o),
(51,812,cs),
(42,797,o),
(38,776,o),
(37,752,cs),
(34,721,ls),
(30,680,o),
(27,640,o),
(24,605,cs),
(20,526,o),
(26,450,o),
(36,376,cs),
(46,302,o),
(60,231,o),
(73,166,cs),
(76,148,o),
(80,130,o),
(83,112,cs),
(86,94,o),
(90,77,o),
(95,61,cs),
(105,29,o),
(119,1,o),
(146,-12,c),
(155,-2,o),
(160,10,o),
(162,25,cs),
(166,53,o),
(163,86,o),
(157,118,cs),
(154,134,o),
(151,149,o),
(150,162,c),
(186,158,o),
(223,164,o),
(262,171,cs),
(301,178,o),
(340,184,o),
(377,179,c),
(372,120,o),
(373,61,o),
(379,3,cs),
(384,-55,o),
(389,-110,o),
(392,-162,cs),
(393,-171,o),
(393,-179,o),
(393,-188,cs),
(393,-197,o),
(394,-206,o),
(395,-214,cs),
(398,-231,o),
(403,-247,o),
(418,-256,c)
);
}
);
width = 502;
}
);
note = alt3;
},
{
glyphname = alt4;
lastChange = "2024-06-01 13:54:28 +0000";
layers = (
{
layerId = m01;
shapes = (
{
closed = 1;
nodes = (
(330,-20,o),
(364,-22,o),
(370,1,cs),
(376,24,o),
(368,55,o),
(356,87,cs),
(350,102,o),
(346,115,o),
(343,126,cs),
(334,166,o),
(330,214,o),
(330,262,cs),
(329,309,o),
(331,354,o),
(332,389,cs),
(333,420,o),
(332,445,o),
(327,464,cs),
(317,502,o),
(263,503,o),
(247,477,cs),
(231,451,o),
(229,410,o),
(233,368,cs),
(234,347,o),
(235,329,o),
(235,314,cs),
(232,237,o),
(234,182,o),
(241,115,c),
(201,128,o),
(164,145,o),
(140,173,cs),
(116,200,o),
(103,238,o),
(108,295,cs),
(109,302,o),
(111,312,o),
(115,326,cs),
(123,353,o),
(132,386,o),
(139,421,cs),
(146,456,o),
(145,483,o),
(132,498,cs),
(119,513,o),
(91,507,o),
(79,492,cs),
(67,476,o),
(58,455,o),
(51,434,cs),
(41,408,ls),
(26,372,o),
(14,334,o),
(11,295,cs),
(4,216,o),
(31,149,o),
(74,101,cs),
(117,53,o),
(174,23,o),
(230,18,c),
(246,15,o),
(260,18,o),
(277,21,c),
(282,17,o),
(287,13,o),
(291,8,cs),
(299,-2,o),
(307,-11,o),
(319,-15,cs)
);
}
);
width = 383;
}
);
note = alt4;
},
{
glyphname = alt1.001;
lastChange = "2024-06-01 13:54:28 +0000";
layers = (
{
layerId = m01;
shapes = (
{
closed = 1;
nodes = (
(257,4,o),
(278,14,o),
(297,27,cs),
(316,40,o),
(332,58,o),
(340,78,c),
(347,91,o),
(350,111,o),
(350,129,cs),
(350,147,o),
(346,163,o),
(337,174,c),
(313,161,o),
(299,136,o),
(283,113,cs),
(267,90,o),
(250,71,o),
(221,67,cs),
(174,60,o),
(146,83,o),
(127,107,cs),
(92,152,o),
(76,224,o),
(74,296,cs),
(72,368,o),
(86,440,o),
(114,491,c),
(129,487,o),
(144,480,o),
(159,471,cs),
(188,452,o),
(205,432,o),
(220,415,cs),
(235,398,o),
(236,385,o),
(233,373,cs),
(232,367,o),
(231,361,o),
(231,355,cs),
(232,340,o),
(236,326,o),
(243,314,cs),
(256,289,o),
(281,298,o),
(288,314,cs),
(295,329,o),
(298,351,o),
(301,373,cs),
(304,395,o),
(305,409,o),
(314,440,cs),
(323,471,o),
(330,501,o),
(323,522,cs),
(316,543,o),
(283,539,o),
(272,527,cs),
(261,515,o),
(257,497,o),
(253,477,cs),
(251,467,o),
(248,458,o),
(244,450,c),
(235,458,o),
(226,468,o),
(217,479,cs),
(208,490,o),
(197,500,o),
(186,510,cs),
(163,530,o),
(138,546,o),
(106,546,cs),
(94,546,o),
(84,542,o),
(75,535,cs),
(58,520,o),
(46,497,o),
(38,473,cs),
(33,461,o),
(29,451,o),
(26,442,cs),
(6,383,o),
(0,311,o),
(9,241,cs),
(17,171,o),
(40,104,o),
(78,58,cs),
(116,12,o),
(168,-15,o),
(237,0,cs)
);
}
);
width = 420;
}
);
note = alt1.001;
},
{
glyphname = alt1.002;
lastChange = "2024-06-01 13:54:28 +0000";
layers = (
{
layerId = m01;
shapes = (
{
closed = 1;
nodes = (
(434,-22,o),
(438,-8,o),
(439,8,cs),
(440,23,o),
(438,40,o),
(437,52,cs),
(428,106,ls),
(424,124,o),
(421,143,o),
(420,164,cs),
(413,243,o),
(416,318,o),
(420,410,cs),
(423,443,ls),
(424,454,o),
(424,466,o),
(425,477,cs),
(425,499,o),
(423,517,o),
(418,528,c),
(413,533,o),
(405,538,o),
(394,542,cs),
(370,550,o),
(352,540,o),
(332,520,cs),
(311,499,o),
(293,472,o),
(275,447,cs),
(266,434,o),
(256,423,o),
(246,414,c),
(246,429,o),
(246,445,o),
(245,461,cs),
(244,493,o),
(237,519,o),
(221,532,cs),
(205,545,o),
(179,540,o),
(163,525,cs),
(146,509,o),
(131,488,o),
(119,467,cs),
(104,441,ls),
(100,435,o),
(97,429,o),
(94,423,cs),
(91,416,o),
(86,412,o),
(79,410,c),
(75,433,o),
(67,462,o),
(56,485,cs),
(48,500,ls),
(45,505,o),
(41,510,o),
(37,515,cs),
(28,524,o),
(18,530,o),
(5,526,c),
(-10,514,o),
(0,497,o),
(5,482,cs),
(12,454,o),
(18,425,o),
(21,395,cs),
(28,335,o),
(30,271,o),
(33,208,cs),
(34,176,o),
(36,145,o),
(39,114,cs),
(40,102,o),
(42,89,o),
(43,76,cs),
(44,63,o),
(46,50,o),
(49,38,cs),
(54,14,o),
(62,-7,o),
(75,-16,cs),
(99,-31,o),
(113,-24,o),
(119,-9,cs),
(125,6,o),
(125,29,o),
(121,48,cs),
(112,109,o),
(108,154,o),
(104,215,cs),
(103,228,o),
(101,243,o),
(99,260,cs),
(96,277,o),
(96,291,o),
(97,302,c),
(102,321,o),
(121,344,o),
(134,363,c),
(146,386,o),
(155,404,o),
(174,419,c),
(174,355,o),
(174,288,o),
(177,220,cs),
(178,148,o),
(180,77,o),
(197,25,cs),
(201,12,o),
(207,2,o),
(216,-3,cs),
(233,-14,o),
(251,-9,o),
(263,8,cs),
(274,24,o),
(269,58,o),
(261,99,cs),
(253,139,o),
(251,190,o),
(251,235,cs),
(248,298,l),
(279,342,o),
(313,393,o),
(348,429,c),
(348,397,o),
(347,364,o),
(346,329,cs),
(344,294,o),
(343,259,o),
(343,225,cs),
(342,157,o),
(346,91,o),
(362,38,cs),
(366,27,o),
(374,9,o),
(385,-5,cs),
(396,-19,o),
(409,-30,o),
(422,-26,cs)
);
}
);
width = 488;
}
);
note = alt1.002;
},
{
glyphname = alt2.001;
lastChange = "2024-06-01 13:54:28 +0000";
layers = (
{
layerId = m01;
shapes = (
{
closed = 1;
nodes = (
(399,-4,o),
(450,20,o),
(485,57,cs),
(518,94,o),
(528,146,o),
(521,199,cs),
(513,252,o),
(490,308,o),
(461,353,cs),
(432,397,o),
(394,432,o),
(359,445,cs),
(318,460,o),
(281,453,o),
(250,437,cs),
(218,421,o),
(193,396,o),
(173,375,c),
(172,398,o),
(172,424,o),
(171,452,cs),
(170,479,o),
(169,507,o),
(166,535,cs),
(160,590,o),
(148,644,o),
(127,684,cs),
(106,723,o),
(75,747,o),
(28,746,c),
(25,742,o),
(23,738,o),
(23,735,cs),
(23,728,o),
(28,723,o),
(33,720,c),
(38,715,l),
(49,699,o),
(58,679,o),
(65,656,cs),
(78,608,o),
(83,552,o),
(82,493,cs),
(81,433,o),
(77,384,o),
(69,329,cs),
(65,302,o),
(62,275,o),
(59,249,cs),
(54,196,o),
(52,146,o),
(67,107,cs),
(86,54,o),
(127,18,o),
(178,-2,cs),
(229,-22,o),
(288,-26,o),
(344,-15,cs)
);
},
{
closed = 1;
nodes = (
(231,77,o),
(201,88,o),
(181,109,cs),
(161,130,o),
(150,161,o),
(159,208,cs),
(164,236,o),
(192,275,o),
(212,303,cs),
(235,338,o),
(259,367,o),
(299,372,cs),
(323,375,o),
(345,365,o),
(363,349,cs),
(381,333,o),
(394,311,o),
(405,291,cs),
(413,272,o),
(424,247,o),
(431,220,cs),
(438,192,o),
(441,164,o),
(432,144,cs),
(421,117,o),
(393,99,o),
(360,87,cs),
(327,75,o),
(288,70,o),
(259,73,cs)
);
}
